<svg width="12" height="16" viewBox="0 0 12 16" fill="none" xmlns="http://www.w3.org/2000/svg">
<path d="M10.3154 9.50003C11.2214 9.50003 11.9609 10.2148 12.0007 11.111L11.9999 11.1875L11.9842 11.9375C11.9386 12.3357 11.8084 12.7195 11.6024 13.0633L10.9814 13.8133C9.81143 14.9428 8.13893 15.5008 5.99993 15.5008C3.64043 15.5008 1.85093 14.822 0.67643 13.4458C0.241886 12.9368 0.00308529 12.2895 0.00292985 11.6203V11.1868C0.00283134 10.9653 0.0463629 10.7459 0.131039 10.5412C0.215715 10.3365 0.339878 10.1505 0.496437 9.99385C0.652997 9.83715 0.838887 9.71282 1.0435 9.62796C1.2481 9.54311 1.46742 9.49938 1.68893 9.49928L10.3154 9.50003ZM5.99993 0.500031C7.22693 0.500031 8.31593 1.08878 8.99993 2.00003H6.00218V2.74928L9.43793 2.75003C9.59093 3.10103 9.69218 3.47903 9.73118 3.87503H6.00143V4.62503L9.73118 4.62653C9.6929 5.01456 9.59394 5.39419 9.43793 5.75153L6.00143 5.75003L6.00218 6.50078L8.99918 6.50153C8.61546 7.01263 8.10747 7.41718 7.52345 7.67677C6.93942 7.93636 6.29874 8.04238 5.66223 7.98476C5.02571 7.92714 4.41449 7.7078 3.88657 7.34755C3.35866 6.98731 2.93158 6.49811 2.64587 5.92641C2.36016 5.35471 2.22531 4.71947 2.25412 4.08101C2.28292 3.44254 2.47443 2.82203 2.81046 2.27838C3.14649 1.73473 3.6159 1.28599 4.17411 0.974745C4.73232 0.663504 5.36081 0.500095 5.99993 0.500031Z" fill="white"/>
</svg>
