<svg width="18" height="19" viewBox="0 0 18 19" fill="none" xmlns="http://www.w3.org/2000/svg">
<path d="M17.5849 16.1964C17.5795 16.1911 17.574 16.1857 17.5686 16.1805L16.8756 15.5173L15.6117 14.2721L14.6746 13.3545L15.5054 12.541C15.6581 12.3907 15.6581 12.1478 15.5054 11.9974L14.6077 11.1184C14.4541 10.9689 14.206 10.9689 14.0525 11.1184L13.7296 11.4345L12.4027 9.98107L17.6631 5.37008C17.7416 5.30083 17.7884 5.20358 17.793 5.10021L17.982 1.40294C17.9881 1.29383 17.9466 1.18733 17.8678 1.10993C17.7888 1.03283 17.68 0.9922 17.5686 0.998127L13.7926 1.17933C13.6871 1.18381 13.5877 1.22964 13.517 1.30655L9.00082 6.26452L4.47675 1.31807C4.40603 1.24116 4.3067 1.19533 4.20113 1.19085L0.425173 1.00965C0.313745 1.00372 0.204975 1.04434 0.125932 1.12145C0.0471838 1.19885 0.0056935 1.30535 0.0117472 1.41446L0.200742 5.11173C0.205319 5.2151 0.252125 5.31235 0.330676 5.3816L5.59891 10.008L4.27594 11.4383L3.95308 11.1222C3.79952 10.9727 3.55146 10.9727 3.39791 11.1222L2.50018 12.0012C2.34751 12.1516 2.34751 12.3945 2.50018 12.5448L3.33097 13.3583L2.38993 14.272L0.421236 16.1997C-0.141959 16.7533 -0.140187 17.6492 0.425223 18.2006C0.695082 18.4638 1.06013 18.6121 1.44102 18.6131C1.82354 18.6144 2.1907 18.4658 2.46081 18.2006L5.35085 15.3708L6.18164 16.1843C6.3352 16.3337 6.58326 16.3337 6.73681 16.1843L7.63454 15.3052C7.78721 15.1549 7.78721 14.912 7.63454 14.7616L7.32742 14.4262L9.00082 12.965L10.6742 14.4262L10.3513 14.7424C10.1987 14.8927 10.1987 15.1356 10.3513 15.286L11.2491 16.165C11.4026 16.3145 11.6507 16.3145 11.8042 16.165L12.635 15.3515L13.5721 16.2691L14.84 17.5105L15.5251 18.1813C16.0849 18.7383 16.9998 18.7454 17.5686 18.1973C18.1374 17.6492 18.1447 16.7533 17.5849 16.1964ZM13.1626 11.9819L12.4697 12.6605L10.9892 11.2109L11.8042 10.4976L13.1626 11.9819ZM0.956722 4.89968L0.799226 1.78842L3.9767 1.94264L8.44958 6.83892L7.53611 7.83745L5.8824 6.21821C5.71723 6.0797 5.46868 6.09855 5.32723 6.26028C5.20098 6.40461 5.20098 6.61748 5.32723 6.76181L7.03212 8.41575L6.12652 9.41428L0.956722 4.89968ZM1.89776 17.6223C1.77481 17.7435 1.60757 17.8115 1.43315 17.8112C1.071 17.7849 0.799177 17.4761 0.826099 17.1215C0.836828 16.9797 0.895249 16.8454 0.992158 16.7394L1.3859 16.3539L2.30725 17.2445L1.89776 17.6223ZM2.85848 16.6816L1.95288 15.791L2.66555 15.0932L3.59477 16.0031L2.85848 16.6816ZM4.13026 15.4363L3.20104 14.5265L3.8822 13.9019L4.81143 14.8118L4.13026 15.4363ZM6.45332 15.3322L5.62647 14.5226L4.14207 13.0691L3.33097 12.2711L3.66958 11.9395L6.8195 15.0238L6.45332 15.3322ZM6.74863 13.8633L6.05565 13.1848L12.6311 6.74639C12.7963 6.60789 12.8155 6.36452 12.6741 6.20279C12.5326 6.04106 12.2841 6.02221 12.1189 6.16072C12.1035 6.17363 12.0891 6.1877 12.0759 6.20279L5.50047 12.6412L4.80749 11.9627L6.42182 10.1969L14.0052 1.94649L17.1827 1.79228L17.0252 4.90354L11.5837 9.66488L6.74863 13.8633ZM9.5678 12.4253L10.4143 11.7275L11.9224 13.2041L11.2294 13.8826L9.5678 12.4253ZM12.324 14.5188L11.5247 15.3515L11.1861 15.0199L14.336 11.9357L14.6746 12.2672L13.8438 13.0807L12.324 14.5188ZM13.1587 14.7925L14.1194 13.9019L14.777 14.5457L13.8477 15.4556L13.1587 14.7925ZM15.088 16.6816L14.3754 15.9838L15.3046 15.0739L16.0173 15.7717L15.088 16.6816ZM17.0095 17.6416L16.978 17.6223C16.7179 17.8651 16.3089 17.8651 16.0487 17.6223L15.655 17.2368L16.6039 16.3539L16.9977 16.7394C17.2521 16.9867 17.2573 17.388 17.0095 17.6416Z" fill="white"/>
</svg>
