<svg width="20" height="19" viewBox="0 0 20 19" fill="none" xmlns="http://www.w3.org/2000/svg">
<path fill-rule="evenodd" clip-rule="evenodd" d="M7 0.8H13C13.6627 0.8 14.2 1.33726 14.2 2V7.81818C14.2 8.48092 13.6627 9.01818 13 9.01818H7C6.33726 9.01818 5.8 8.48092 5.8 7.81818V2C5.8 1.33726 6.33726 0.8 7 0.8ZM5 2C5 0.895432 5.89543 0 7 0H13C14.1046 0 15 0.895431 15 2V7.81818C15 8.34515 14.7962 8.82452 14.4631 9.18176H18C19.1046 9.18176 20 10.0772 20 11.1818V16.9999C20 18.1045 19.1046 18.9999 18 18.9999H12C10.8954 18.9999 10 18.1045 10 16.9999V17C10 18.1046 9.10457 19 8 19H2C0.89543 19 0 18.1046 0 17V11.1818C0 10.0772 0.895431 9.18182 2 9.18182H5.53695C5.20383 8.82457 5 8.34518 5 7.81818V2ZM9.46305 9.81818C9.79617 10.1754 10 10.6548 10 11.1818V11.1818C10 10.6548 10.2038 10.1754 10.5369 9.81818H9.46305ZM19.2 11.1818C19.2 10.519 18.6627 9.98176 18 9.98176H12C11.3373 9.98176 10.8 10.519 10.8 11.1818V16.9999C10.8 17.6627 11.3373 18.1999 12 18.1999H18C18.6627 18.1999 19.2 17.6627 19.2 16.9999V11.1818ZM9.2 11.1818C9.2 10.5191 8.66274 9.98182 8 9.98182H2C1.33726 9.98182 0.8 10.5191 0.8 11.1818V17C0.8 17.6627 1.33726 18.2 2 18.2H8C8.66274 18.2 9.2 17.6627 9.2 17V11.1818Z" fill="white"/>
</svg>
