<svg width="39" height="39" viewBox="0 0 39 39" fill="none" xmlns="http://www.w3.org/2000/svg">
<path d="M16 12C16 10.3431 17.3431 9 19 9C20.6569 9 22 10.3431 22 12C22 13.6569 20.6569 15 19 15C17.3431 15 16 13.6569 16 12Z" fill="white"/>
<path d="M16 26.5C16 24.567 17.567 23 19.5 23C21.433 23 23 24.567 23 26.5C23 28.433 21.433 30 19.5 30C17.567 30 16 28.433 16 26.5Z" fill="white"/>
<path d="M5.99998 19.4377C5.99998 16.9868 7.98683 15 10.4377 15C12.8886 15 14.8755 16.9868 14.8755 19.4377C14.8755 21.8886 12.8886 23.8755 10.4377 23.8755C7.98683 23.8755 5.99998 21.8886 5.99998 19.4377Z" fill="white"/>
<path d="M23.751 19.4377C23.751 16.9868 25.7378 15 28.1887 15C30.6396 15 32.6265 16.9868 32.6265 19.4377C32.6265 21.8886 30.6396 23.8755 28.1887 23.8755C25.7378 23.8755 23.751 21.8886 23.751 19.4377Z" fill="white"/>
</svg>
