<svg width="39" height="39" viewBox="0 0 39 39" fill="none" xmlns="http://www.w3.org/2000/svg">
<path d="M26.7347 18.5387C26.2986 17.5573 25.6647 16.6765 24.8727 15.9512L24.219 15.3515C24.1969 15.3317 24.1701 15.3177 24.1412 15.3106C24.1124 15.3035 24.0822 15.3037 24.0533 15.311C24.0245 15.3183 23.9979 15.3326 23.9759 15.3526C23.9539 15.3726 23.9371 15.3977 23.9271 15.4257L23.6351 16.2635C23.4531 16.789 23.1185 17.3259 22.6445 17.8537C22.6131 17.8874 22.5772 17.8964 22.5524 17.8986C22.5277 17.9009 22.4896 17.8964 22.4559 17.8649C22.4244 17.838 22.4087 17.7975 22.4109 17.7571C22.494 16.405 22.0897 14.8799 21.2048 13.22C20.4726 11.8409 19.4551 10.765 18.1838 10.0148L17.2562 9.46902C17.1349 9.39714 16.9799 9.49148 16.9866 9.63298L17.036 10.7111C17.0697 11.4478 16.9844 12.0992 16.7822 12.6405C16.5352 13.3031 16.1803 13.9185 15.7266 14.4711C15.4108 14.8551 15.0529 15.2024 14.6597 15.5065C13.7125 16.2346 12.9423 17.1676 12.4068 18.2355C11.8727 19.3128 11.5944 20.4988 11.5938 21.7012C11.5938 22.7614 11.8026 23.7879 12.2159 24.7559C12.615 25.688 13.1909 26.5339 13.9117 27.2468C14.6395 27.9656 15.484 28.5316 16.4251 28.9247C17.3999 29.3335 18.4331 29.5401 19.5 29.5401C20.5669 29.5401 21.6001 29.3335 22.5749 28.9269C23.5137 28.5362 24.3674 27.9663 25.0883 27.2491C25.816 26.5303 26.3865 25.6903 26.7841 24.7582C27.1967 23.7928 27.4084 22.7534 27.4063 21.7035C27.4063 20.6074 27.1816 19.5427 26.7347 18.5387ZM24.0146 26.1597C22.8085 27.3547 21.207 28.0105 19.5 28.0105C17.793 28.0105 16.1915 27.3547 14.9854 26.1597C13.7837 24.9671 13.1211 23.3858 13.1211 21.7035C13.1211 20.7264 13.3412 19.7898 13.7747 18.9183C14.197 18.0671 14.8259 17.3056 15.5896 16.7194C16.0766 16.347 16.5183 15.9188 16.9058 15.4436C17.4673 14.7586 17.9075 13.9949 18.213 13.1751C18.3383 12.8369 18.4293 12.487 18.4848 12.1306C19.0261 12.6293 19.4798 13.2312 19.8594 13.9365C20.6096 15.3426 20.9555 16.5936 20.8881 17.6583C20.872 17.909 20.9129 18.1602 21.0079 18.3928C21.1028 18.6254 21.2492 18.8335 21.4361 19.0014C21.5981 19.1478 21.7876 19.2604 21.9935 19.3329C22.1994 19.4054 22.4176 19.4363 22.6355 19.4237C23.078 19.4012 23.4846 19.2058 23.7811 18.8757C24.0798 18.541 24.3381 18.1996 24.5537 17.8514C24.8682 18.2535 25.131 18.6915 25.3398 19.1632C25.697 19.9673 25.8789 20.823 25.8789 21.7035C25.8789 23.3858 25.2163 24.9693 24.0146 26.1597Z" fill="white"/>
</svg>
