<svg width="39" height="39" viewBox="0 0 39 39" fill="none" xmlns="http://www.w3.org/2000/svg">
<path d="M7 15C8.20042 15 8.20042 19 9.40084 19C10.6013 19 10.6013 15 11.8017 15C13.0021 15 13.0021 19 14.1997 19C15.4002 19 15.4002 15 16.5978 15C17.7982 15 17.7982 19 18.9958 19C20.1962 19 20.1962 15 21.3966 15C22.597 15 22.597 19 23.7975 19C24.9978 19 24.9978 15 26.1983 15C27.3987 15 27.3987 19 28.5992 19C29.7996 19 29.7996 15 31 15" stroke="white" stroke-miterlimit="10" stroke-linecap="round"/>
<path d="M7 21C8.20042 21 8.20042 25 9.40084 25C10.6013 25 10.6013 21 11.8017 21C13.0021 21 13.0021 25 14.1997 25C15.4002 25 15.4002 21 16.5978 21C17.7982 21 17.7982 25 18.9958 25C20.1962 25 20.1962 21 21.3966 21C22.597 21 22.597 25 23.7975 25C24.9978 25 24.9978 21 26.1983 21C27.3987 21 27.3987 25 28.5992 25C29.7996 25 29.7996 21 31 21" stroke="white" stroke-miterlimit="10" stroke-linecap="round"/>
</svg>
