<svg width="779" height="621" viewBox="0 0 779 621" fill="none" xmlns="http://www.w3.org/2000/svg">
<g filter="url(#filter0_i_0_5455)">
<path d="M388.316 212.431V54.3486C438.352 54.3486 487.354 68.5742 529.601 95.364C571.847 122.153 605.593 160.401 626.897 205.639L483.748 272.947C475.226 254.851 461.728 239.553 444.829 228.837C427.931 218.121 408.33 212.431 388.316 212.431Z" fill="url(#paint0_linear_0_5455)"/>
</g>
<g filter="url(#filter1_i_0_5455)">
<path d="M483.748 272.947L626.897 205.639C642.828 239.468 651.371 276.298 651.959 313.681C652.547 351.064 645.166 388.144 630.305 422.455C615.446 456.768 593.448 487.528 565.773 512.69C538.098 537.853 505.381 556.841 469.797 568.394L420.908 418.05C435.142 413.428 448.229 405.833 459.298 395.768C470.368 385.702 479.168 373.399 485.112 359.674C491.056 345.949 494.008 331.117 493.773 316.164C493.538 301.211 490.121 286.479 483.748 272.947Z" fill="url(#paint1_linear_0_5455)"/>
</g>
<g filter="url(#filter2_i_0_5455)">
<path d="M349.49 219.831L291.251 72.8504C322.15 60.6261 355.083 54.3486 388.316 54.3486V212.431C375.023 212.431 361.849 214.942 349.49 219.831Z" fill="url(#paint2_linear_0_5455)"/>
</g>
<g filter="url(#filter3_i_0_5455)">
<path d="M340.434 223.917L268.61 83.0653C275.992 79.3067 283.547 75.8981 291.251 72.8505L349.49 219.831C346.408 221.051 343.387 222.414 340.434 223.917Z" fill="url(#paint3_linear_0_5455)"/>
</g>
<g filter="url(#filter4_i_0_5455)">
<path d="M329.033 230.655L240.108 99.908C249.246 93.7024 258.765 88.0774 268.61 83.0654L340.434 223.918C336.496 225.923 332.688 228.173 329.033 230.655Z" fill="url(#paint4_linear_0_5455)"/>
</g>
<g filter="url(#filter5_i_0_5455)">
<path d="M309.202 248.125L190.53 143.583C205.157 127.004 221.814 112.331 240.108 99.908L329.033 230.655C321.715 235.624 315.053 241.493 309.202 248.125Z" fill="url(#paint5_linear_0_5455)"/>
</g>
<g filter="url(#filter6_i_0_5455)">
<path d="M302.988 255.873L174.997 162.955C179.867 156.258 185.05 149.793 190.529 143.583L309.201 248.125C307.01 250.609 304.936 253.194 302.988 255.873Z" fill="url(#paint6_linear_0_5455)"/>
</g>
<g filter="url(#filter7_i_0_5455)">
<path d="M301.083 258.582L170.234 169.726C171.787 167.445 173.374 165.187 174.997 162.955L302.988 255.873C302.339 256.766 301.705 257.67 301.083 258.582Z" fill="url(#paint7_linear_0_5455)"/>
</g>
<g filter="url(#filter8_i_0_5455)">
<path d="M283.314 307.901L125.81 293.025C129.99 248.843 145.271 206.431 170.235 169.727L301.084 258.582C291.098 273.264 284.986 290.229 283.314 307.901Z" fill="url(#paint8_linear_0_5455)"/>
</g>
<g filter="url(#filter9_i_0_5455)">
<path d="M295.892 368.591L157.255 444.747C131.792 398.465 120.836 345.605 125.811 293.025L283.314 307.902C281.324 328.934 285.706 350.078 295.892 368.591Z" fill="url(#paint9_linear_0_5455)"/>
</g>
<g filter="url(#filter10_i_0_5455)">
<path d="M420.908 418.05L469.797 568.395C411.441 587.34 348.3 585.358 291.251 562.788C234.201 540.218 186.815 498.474 157.256 444.747L295.892 368.591C307.716 390.081 326.671 406.779 349.491 415.807C372.31 424.834 397.566 425.627 420.908 418.05Z" fill="url(#paint10_linear_0_5455)"/>
</g>
<path d="M79.2354 368.858H129.383" stroke="#C9B342" stroke-dasharray="5 5"/>
<path d="M718.015 499.393H679.446C677.56 499.393 675.722 498.793 674.198 497.68L614.297 453.945" stroke="#D3C057" stroke-dasharray="5 5"/>
<path d="M650.354 74.8407H611.94C609.958 74.8407 608.032 75.5025 606.469 76.7213L556.874 115.379" stroke="#D3C057" stroke-dasharray="5 5"/>
<path d="M219.01 10.6915H265.986C267.908 10.6915 269.778 11.3137 271.317 12.4651L333.863 59.2578" stroke="#C9B342" stroke-dasharray="5 5"/>
<path d="M146.007 597.398H192.983C194.905 597.398 196.775 596.776 198.314 595.624L260.86 548.832" stroke="#CFBB4F" stroke-dasharray="5 5"/>
<path d="M52.5269 191.557H99.2864C100.586 191.557 101.871 191.842 103.05 192.391L146.351 212.602" stroke="#C9B342" stroke-dasharray="5 5"/>
<path d="M171.619 8.10597C172.334 8.10597 172.986 8.2503 173.574 8.53897C174.161 8.82764 174.626 9.23927 174.968 9.77385C175.31 10.2977 175.481 10.9071 175.481 11.6021C175.481 12.3505 175.294 13.008 174.92 13.5747C174.546 14.1413 174.033 14.5797 173.381 14.8897C172.74 15.1891 172.025 15.3388 171.234 15.3388C169.664 15.3388 168.435 14.8577 167.548 13.8954C166.661 12.9332 166.218 11.5593 166.218 9.77385C166.218 8.50155 166.458 7.41102 166.939 6.50224C167.42 5.59346 168.088 4.90385 168.942 4.43342C169.808 3.963 170.807 3.72778 171.939 3.72778C172.537 3.72778 173.109 3.79728 173.654 3.93627C174.209 4.06457 174.679 4.25167 175.064 4.49757L174.102 6.40601C173.547 6.03181 172.847 5.84471 172.003 5.84471C171.052 5.84471 170.299 6.12269 169.744 6.67865C169.188 7.23461 168.889 8.04182 168.846 9.10028C169.509 8.4374 170.433 8.10597 171.619 8.10597ZM171.09 13.3983C171.645 13.3983 172.094 13.2486 172.436 12.9492C172.788 12.6499 172.965 12.2436 172.965 11.7304C172.965 11.2172 172.788 10.8109 172.436 10.5116C172.094 10.2015 171.635 10.0465 171.058 10.0465C170.491 10.0465 170.027 10.2069 169.664 10.5276C169.3 10.8377 169.119 11.2386 169.119 11.7304C169.119 12.2222 169.295 12.6231 169.647 12.9332C170 13.2432 170.481 13.3983 171.09 13.3983ZM178.053 15.2746C177.615 15.2746 177.246 15.125 176.947 14.8256C176.648 14.5262 176.498 14.152 176.498 13.703C176.498 13.2432 176.648 12.8744 176.947 12.5964C177.246 12.3077 177.615 12.1634 178.053 12.1634C178.491 12.1634 178.859 12.3077 179.158 12.5964C179.458 12.8744 179.607 13.2432 179.607 13.703C179.607 14.152 179.458 14.5262 179.158 14.8256C178.859 15.125 178.491 15.2746 178.053 15.2746ZM185.376 15.3388C184.447 15.3388 183.619 15.1089 182.892 14.6492C182.166 14.1894 181.594 13.5266 181.178 12.6606C180.772 11.7839 180.569 10.7414 180.569 9.53329C180.569 8.32514 180.772 7.28806 181.178 6.42205C181.594 5.54534 182.166 4.87712 182.892 4.41739C183.619 3.95765 184.447 3.72778 185.376 3.72778C186.306 3.72778 187.134 3.95765 187.86 4.41739C188.587 4.87712 189.153 5.54534 189.559 6.42205C189.975 7.28806 190.184 8.32514 190.184 9.53329C190.184 10.7414 189.975 11.7839 189.559 12.6606C189.153 13.5266 188.587 14.1894 187.86 14.6492C187.134 15.1089 186.306 15.3388 185.376 15.3388ZM185.376 13.1417C186.06 13.1417 186.594 12.8477 186.979 12.2596C187.374 11.6716 187.572 10.7628 187.572 9.53329C187.572 8.30376 187.374 7.39498 186.979 6.80694C186.594 6.21891 186.06 5.92489 185.376 5.92489C184.703 5.92489 184.169 6.21891 183.774 6.80694C183.389 7.39498 183.197 8.30376 183.197 9.53329C183.197 10.7628 183.389 11.6716 183.774 12.2596C184.169 12.8477 184.703 13.1417 185.376 13.1417ZM196.253 15.3388C195.323 15.3388 194.495 15.1089 193.769 14.6492C193.042 14.1894 192.471 13.5266 192.054 12.6606C191.648 11.7839 191.445 10.7414 191.445 9.53329C191.445 8.32514 191.648 7.28806 192.054 6.42205C192.471 5.54534 193.042 4.87712 193.769 4.41739C194.495 3.95765 195.323 3.72778 196.253 3.72778C197.182 3.72778 198.01 3.95765 198.737 4.41739C199.463 4.87712 200.029 5.54534 200.435 6.42205C200.852 7.28806 201.06 8.32514 201.06 9.53329C201.06 10.7414 200.852 11.7839 200.435 12.6606C200.029 13.5266 199.463 14.1894 198.737 14.6492C198.01 15.1089 197.182 15.3388 196.253 15.3388ZM196.253 13.1417C196.937 13.1417 197.471 12.8477 197.855 12.2596C198.251 11.6716 198.448 10.7628 198.448 9.53329C198.448 8.30376 198.251 7.39498 197.855 6.80694C197.471 6.21891 196.937 5.92489 196.253 5.92489C195.58 5.92489 195.046 6.21891 194.65 6.80694C194.266 7.39498 194.073 8.30376 194.073 9.53329C194.073 10.7628 194.266 11.6716 194.65 12.2596C195.046 12.8477 195.58 13.1417 196.253 13.1417ZM204.918 9.98233C204.095 9.98233 203.422 9.70435 202.899 9.14839C202.386 8.58174 202.13 7.82799 202.13 6.88713C202.13 5.94628 202.386 5.19787 202.899 4.64191C203.422 4.07526 204.095 3.79193 204.918 3.79193C205.741 3.79193 206.408 4.07526 206.921 4.64191C207.434 5.19787 207.69 5.94628 207.69 6.88713C207.69 7.82799 207.434 8.58174 206.921 9.14839C206.408 9.70435 205.741 9.98233 204.918 9.98233ZM211.6 3.92023H213.507L205.847 15.1463H203.94L211.6 3.92023ZM204.918 8.66727C205.281 8.66727 205.564 8.51759 205.767 8.21823C205.981 7.91886 206.088 7.47517 206.088 6.88713C206.088 6.2991 205.981 5.8554 205.767 5.55604C205.564 5.25667 205.281 5.10699 204.918 5.10699C204.565 5.10699 204.282 5.26202 204.069 5.57207C203.855 5.87144 203.748 6.30979 203.748 6.88713C203.748 7.46447 203.855 7.90817 204.069 8.21823C204.282 8.51759 204.565 8.66727 204.918 8.66727ZM212.53 15.2746C211.996 15.2746 211.515 15.1517 211.088 14.9058C210.671 14.6492 210.345 14.2857 210.11 13.8152C209.875 13.3448 209.758 12.7995 209.758 12.1794C209.758 11.5593 209.875 11.0141 210.11 10.5436C210.345 10.0732 210.671 9.71504 211.088 9.46914C211.515 9.21254 211.996 9.08424 212.53 9.08424C213.352 9.08424 214.02 9.36757 214.533 9.93422C215.057 10.4902 215.318 11.2386 215.318 12.1794C215.318 13.1203 215.057 13.874 214.533 14.4407C214.02 14.9967 213.352 15.2746 212.53 15.2746ZM212.53 13.9596C212.893 13.9596 213.176 13.8099 213.379 13.5105C213.593 13.2005 213.7 12.7568 213.7 12.1794C213.7 11.6021 213.593 11.1637 213.379 10.8644C213.176 10.5543 212.893 10.3993 212.53 10.3993C212.177 10.3993 211.894 10.549 211.681 10.8483C211.467 11.1477 211.36 11.5914 211.36 12.1794C211.36 12.7675 211.467 13.2112 211.681 13.5105C211.894 13.8099 212.177 13.9596 212.53 13.9596Z" fill="#C9B342"/>
<path d="M88.2416 599.282V601.399H79.7643V599.715L84.091 595.625C84.5504 595.187 84.8603 594.813 85.0205 594.503C85.1808 594.182 85.2609 593.867 85.2609 593.557C85.2609 593.108 85.106 592.765 84.7962 592.53C84.497 592.284 84.0537 592.161 83.4661 592.161C82.9746 592.161 82.5313 592.258 82.136 592.45C81.7407 592.632 81.4095 592.91 81.1424 593.284L79.2514 592.065C79.6895 591.413 80.2931 590.905 81.0623 590.542C81.8315 590.167 82.7129 589.98 83.7064 589.98C84.5398 589.98 85.2662 590.119 85.8859 590.397C86.5162 590.665 87.0023 591.049 87.3441 591.552C87.6967 592.044 87.873 592.626 87.873 593.3C87.873 593.909 87.7448 594.481 87.4884 595.016C87.232 595.551 86.7352 596.16 85.998 596.844L83.418 599.282H88.2416ZM97.6937 599.282V601.399H89.2164V599.715L93.5432 595.625C94.0026 595.187 94.3124 594.813 94.4727 594.503C94.6329 594.182 94.713 593.867 94.713 593.557C94.713 593.108 94.5581 592.765 94.2483 592.53C93.9492 592.284 93.5058 592.161 92.9182 592.161C92.4268 592.161 91.9834 592.258 91.5881 592.45C91.1929 592.632 90.8617 592.91 90.5946 593.284L88.7038 592.065C89.1416 591.413 89.7452 590.905 90.5145 590.542C91.2837 590.167 92.165 589.98 93.1586 589.98C93.9919 589.98 94.7184 590.119 95.338 590.397C95.9683 590.665 96.4544 591.049 96.7963 591.552C97.1489 592.044 97.3251 592.626 97.3251 593.3C97.3251 593.909 97.1969 594.481 96.9405 595.016C96.6841 595.551 96.1874 596.16 95.4502 596.844L92.8702 599.282H97.6937ZM100.396 601.527C99.9577 601.527 99.5891 601.377 99.29 601.078C98.9909 600.779 98.8413 600.405 98.8413 599.956C98.8413 599.496 98.9909 599.127 99.29 598.849C99.5891 598.56 99.9577 598.416 100.396 598.416C100.834 598.416 101.202 598.56 101.501 598.849C101.801 599.127 101.95 599.496 101.95 599.956C101.95 600.405 101.801 600.779 101.501 601.078C101.202 601.377 100.834 601.527 100.396 601.527ZM107.72 601.591C106.791 601.591 105.963 601.361 105.236 600.902C104.51 600.442 103.938 599.779 103.522 598.913C103.116 598.036 102.913 596.994 102.913 595.786C102.913 594.578 103.116 593.541 103.522 592.675C103.938 591.798 104.51 591.13 105.236 590.67C105.963 590.21 106.791 589.98 107.72 589.98C108.65 589.98 109.478 590.21 110.204 590.67C110.93 591.13 111.497 591.798 111.903 592.675C112.319 593.541 112.528 594.578 112.528 595.786C112.528 596.994 112.319 598.036 111.903 598.913C111.497 599.779 110.93 600.442 110.204 600.902C109.478 601.361 108.65 601.591 107.72 601.591ZM107.72 599.394C108.404 599.394 108.938 599.1 109.323 598.512C109.718 597.924 109.916 597.015 109.916 595.786C109.916 594.556 109.718 593.648 109.323 593.059C108.938 592.471 108.404 592.177 107.72 592.177C107.047 592.177 106.513 592.471 106.118 593.059C105.733 593.648 105.541 594.556 105.541 595.786C105.541 597.015 105.733 597.924 106.118 598.512C106.513 599.1 107.047 599.394 107.72 599.394ZM118.596 601.591C117.666 601.591 116.838 601.361 116.112 600.902C115.385 600.442 114.814 599.779 114.397 598.913C113.991 598.036 113.788 596.994 113.788 595.786C113.788 594.578 113.991 593.541 114.397 592.675C114.814 591.798 115.385 591.13 116.112 590.67C116.838 590.21 117.666 589.98 118.596 589.98C119.525 589.98 120.353 590.21 121.08 590.67C121.806 591.13 122.372 591.798 122.778 592.675C123.195 593.541 123.403 594.578 123.403 595.786C123.403 596.994 123.195 598.036 122.778 598.913C122.372 599.779 121.806 600.442 121.08 600.902C120.353 601.361 119.525 601.591 118.596 601.591ZM118.596 599.394C119.28 599.394 119.814 599.1 120.198 598.512C120.594 597.924 120.791 597.015 120.791 595.786C120.791 594.556 120.594 593.648 120.198 593.059C119.814 592.471 119.28 592.177 118.596 592.177C117.923 592.177 117.389 592.471 116.993 593.059C116.609 593.648 116.416 594.556 116.416 595.786C116.416 597.015 116.609 597.924 116.993 598.512C117.389 599.1 117.923 599.394 118.596 599.394ZM127.261 596.235C126.438 596.235 125.765 595.957 125.242 595.401C124.729 594.834 124.473 594.081 124.473 593.14C124.473 592.199 124.729 591.45 125.242 590.894C125.765 590.328 126.438 590.044 127.261 590.044C128.084 590.044 128.751 590.328 129.264 590.894C129.777 591.45 130.033 592.199 130.033 593.14C130.033 594.081 129.777 594.834 129.264 595.401C128.751 595.957 128.084 596.235 127.261 596.235ZM133.943 590.173H135.85L128.19 601.399H126.283L133.943 590.173ZM127.261 594.92C127.624 594.92 127.907 594.77 128.11 594.471C128.324 594.171 128.431 593.728 128.431 593.14C128.431 592.552 128.324 592.108 128.11 591.809C127.907 591.509 127.624 591.36 127.261 591.36C126.908 591.36 126.625 591.515 126.412 591.825C126.198 592.124 126.091 592.562 126.091 593.14C126.091 593.717 126.198 594.161 126.412 594.471C126.625 594.77 126.908 594.92 127.261 594.92ZM134.873 601.527C134.339 601.527 133.858 601.404 133.431 601.158C133.014 600.902 132.688 600.538 132.453 600.068C132.218 599.597 132.101 599.052 132.101 598.432C132.101 597.812 132.218 597.267 132.453 596.796C132.688 596.326 133.014 595.968 133.431 595.722C133.858 595.465 134.339 595.337 134.873 595.337C135.696 595.337 136.363 595.62 136.876 596.187C137.4 596.743 137.661 597.491 137.661 598.432C137.661 599.373 137.4 600.127 136.876 600.693C136.363 601.249 135.696 601.527 134.873 601.527ZM134.873 600.212C135.236 600.212 135.519 600.062 135.722 599.763C135.936 599.453 136.043 599.009 136.043 598.432C136.043 597.855 135.936 597.416 135.722 597.117C135.519 596.807 135.236 596.652 134.873 596.652C134.52 596.652 134.237 596.802 134.024 597.101C133.81 597.4 133.703 597.844 133.703 598.432C133.703 599.02 133.81 599.464 134.024 599.763C134.237 600.062 134.52 600.212 134.873 600.212Z" fill="#C9B342"/>
<path d="M26.8243 362.785C28.3948 362.785 29.6234 363.266 30.5101 364.229C31.3968 365.18 31.8402 366.554 31.8402 368.35C31.8402 369.622 31.5998 370.713 31.1191 371.622C30.649 372.53 29.9813 373.22 29.1159 373.691C28.2506 374.161 27.2517 374.396 26.1192 374.396C25.5209 374.396 24.9494 374.332 24.4045 374.204C23.8597 374.065 23.3949 373.872 23.0103 373.626L23.9718 371.718C24.5167 372.092 25.2165 372.279 26.0711 372.279C27.022 372.279 27.7751 372.001 28.3307 371.445C28.8862 370.879 29.1854 370.066 29.2281 369.008C28.555 369.681 27.6256 370.018 26.4397 370.018C25.7239 370.018 25.0722 369.874 24.4847 369.585C23.8971 369.296 23.4323 368.89 23.0905 368.366C22.7486 367.832 22.5777 367.217 22.5777 366.522C22.5777 365.773 22.7646 365.116 23.1385 364.549C23.5125 363.983 24.0199 363.55 24.6609 363.25C25.3126 362.94 26.0337 362.785 26.8243 362.785ZM27.0166 368.077C27.5828 368.077 28.0422 367.922 28.3948 367.612C28.758 367.292 28.9396 366.885 28.9396 366.394C28.9396 365.902 28.7634 365.501 28.4108 365.191C28.0689 364.881 27.5935 364.726 26.9846 364.726C26.429 364.726 25.975 364.875 25.6224 365.175C25.2806 365.474 25.1096 365.88 25.1096 366.394C25.1096 366.907 25.2806 367.318 25.6224 367.628C25.975 367.928 26.4397 368.077 27.0166 368.077ZM34.3565 374.332C33.9185 374.332 33.5499 374.182 33.2508 373.883C32.9516 373.584 32.8021 373.209 32.8021 372.76C32.8021 372.301 32.9516 371.932 33.2508 371.654C33.5499 371.365 33.9185 371.221 34.3565 371.221C34.7945 371.221 35.1631 371.365 35.4622 371.654C35.7614 371.932 35.9109 372.301 35.9109 372.76C35.9109 373.209 35.7614 373.584 35.4622 373.883C35.1631 374.182 34.7945 374.332 34.3565 374.332ZM40.9224 367.195C42.5035 367.195 43.668 367.511 44.4158 368.142C45.1744 368.772 45.5536 369.617 45.5536 370.676C45.5536 371.36 45.3827 371.985 45.0408 372.552C44.6989 373.108 44.1755 373.557 43.4704 373.899C42.7759 374.23 41.9159 374.396 40.8903 374.396C40.0997 374.396 39.3198 374.295 38.5506 374.091C37.7921 373.878 37.1458 373.578 36.6116 373.193L37.6372 371.205C38.0645 371.525 38.556 371.777 39.1115 371.958C39.6671 372.13 40.2386 372.215 40.8262 372.215C41.4779 372.215 41.9907 372.087 42.3646 371.83C42.7385 371.574 42.9255 371.215 42.9255 370.756C42.9255 370.275 42.7279 369.911 42.3326 369.665C41.948 369.419 41.2749 369.296 40.3134 369.296H37.4449L38.0218 362.978H44.8645V365.062H40.1852L40.0089 367.195H40.9224ZM51.4144 374.396C50.4849 374.396 49.6569 374.166 48.9305 373.707C48.204 373.247 47.6324 372.584 47.2158 371.718C46.8098 370.841 46.6068 369.799 46.6068 368.591C46.6068 367.383 46.8098 366.345 47.2158 365.479C47.6324 364.603 48.204 363.935 48.9305 363.475C49.6569 363.015 50.4849 362.785 51.4144 362.785C52.3438 362.785 53.1718 363.015 53.8983 363.475C54.6247 363.935 55.191 364.603 55.5969 365.479C56.0136 366.345 56.2219 367.383 56.2219 368.591C56.2219 369.799 56.0136 370.841 55.5969 371.718C55.191 372.584 54.6247 373.247 53.8983 373.707C53.1718 374.166 52.3438 374.396 51.4144 374.396ZM51.4144 372.199C52.0981 372.199 52.6323 371.905 53.0169 371.317C53.4122 370.729 53.6098 369.82 53.6098 368.591C53.6098 367.361 53.4122 366.452 53.0169 365.864C52.6323 365.276 52.0981 364.982 51.4144 364.982C50.7413 364.982 50.2071 365.276 49.8119 365.864C49.4273 366.452 49.235 367.361 49.235 368.591C49.235 369.82 49.4273 370.729 49.8119 371.317C50.2071 371.905 50.7413 372.199 51.4144 372.199ZM60.0793 369.04C59.2567 369.04 58.5837 368.762 58.0602 368.206C57.5474 367.639 57.291 366.885 57.291 365.945C57.291 365.004 57.5474 364.255 58.0602 363.699C58.5837 363.133 59.2567 362.849 60.0793 362.849C60.902 362.849 61.5697 363.133 62.0825 363.699C62.5953 364.255 62.8517 365.004 62.8517 365.945C62.8517 366.885 62.5953 367.639 62.0825 368.206C61.5697 368.762 60.902 369.04 60.0793 369.04ZM66.7618 362.978H68.6688L61.0088 374.204H59.1018L66.7618 362.978ZM60.0793 367.725C60.4426 367.725 60.7257 367.575 60.9287 367.276C61.1423 366.976 61.2492 366.533 61.2492 365.945C61.2492 365.356 61.1423 364.913 60.9287 364.613C60.7257 364.314 60.4426 364.164 60.0793 364.164C59.7268 364.164 59.4437 364.319 59.23 364.629C59.0163 364.929 58.9095 365.367 58.9095 365.945C58.9095 366.522 59.0163 366.966 59.23 367.276C59.4437 367.575 59.7268 367.725 60.0793 367.725ZM67.6913 374.332C67.1571 374.332 66.6764 374.209 66.249 373.963C65.8324 373.707 65.5065 373.343 65.2715 372.873C65.0365 372.402 64.9189 371.857 64.9189 371.237C64.9189 370.617 65.0365 370.071 65.2715 369.601C65.5065 369.131 65.8324 368.772 66.249 368.526C66.6764 368.27 67.1571 368.142 67.6913 368.142C68.5139 368.142 69.1816 368.425 69.6944 368.992C70.2179 369.548 70.4797 370.296 70.4797 371.237C70.4797 372.178 70.2179 372.931 69.6944 373.498C69.1816 374.054 68.5139 374.332 67.6913 374.332ZM67.6913 373.017C68.0545 373.017 68.3376 372.867 68.5406 372.568C68.7543 372.258 68.8611 371.814 68.8611 371.237C68.8611 370.659 68.7543 370.221 68.5406 369.922C68.3376 369.612 68.0545 369.457 67.6913 369.457C67.3387 369.457 67.0556 369.606 66.842 369.906C66.6283 370.205 66.5215 370.649 66.5215 371.237C66.5215 371.825 66.6283 372.269 66.842 372.568C67.0556 372.867 67.3387 373.017 67.6913 373.017Z" fill="#C9B342"/>
<path d="M8.30104 191.001C8.85658 191.279 9.27857 191.642 9.56702 192.091C9.86616 192.54 10.0157 193.059 10.0157 193.647C10.0157 194.342 9.81808 194.951 9.4228 195.475C9.02751 195.988 8.47197 196.389 7.75618 196.678C7.04039 196.956 6.21243 197.095 5.27229 197.095C4.33214 197.095 3.50418 196.956 2.78839 196.678C2.08328 196.389 1.53309 195.988 1.1378 195.475C0.753196 194.951 0.560894 194.342 0.560894 193.647C0.560894 193.059 0.70512 192.54 0.993573 192.091C1.29271 191.642 1.7147 191.279 2.25956 191.001C1.84291 190.744 1.5224 190.423 1.29805 190.038C1.0737 189.643 0.961523 189.194 0.961523 188.691C0.961523 188.039 1.14314 187.473 1.50638 186.991C1.86961 186.51 2.37708 186.141 3.02877 185.885C3.68046 185.618 4.4283 185.484 5.27229 185.484C6.12696 185.484 6.88014 185.618 7.53183 185.885C8.1942 186.141 8.70701 186.51 9.07024 186.991C9.43348 187.473 9.6151 188.039 9.6151 188.691C9.6151 189.194 9.50292 189.643 9.27857 190.038C9.05422 190.423 8.72838 190.744 8.30104 191.001ZM5.27229 187.392C4.7488 187.392 4.3268 187.521 4.0063 187.777C3.69648 188.023 3.54157 188.365 3.54157 188.804C3.54157 189.231 3.69648 189.568 4.0063 189.814C4.31612 190.06 4.73811 190.183 5.27229 190.183C5.80646 190.183 6.23379 190.06 6.5543 189.814C6.8748 189.568 7.03505 189.231 7.03505 188.804C7.03505 188.365 6.8748 188.023 6.5543 187.777C6.23379 187.521 5.80646 187.392 5.27229 187.392ZM5.27229 195.186C5.92398 195.186 6.43678 195.042 6.8107 194.753C7.1953 194.454 7.38761 194.059 7.38761 193.567C7.38761 193.075 7.1953 192.685 6.8107 192.396C6.43678 192.107 5.92398 191.963 5.27229 191.963C4.63128 191.963 4.12382 192.107 3.7499 192.396C3.37598 192.685 3.18902 193.075 3.18902 193.567C3.18902 194.069 3.37598 194.465 3.7499 194.753C4.12382 195.042 4.63128 195.186 5.27229 195.186ZM12.8349 197.031C12.3969 197.031 12.0283 196.881 11.7292 196.582C11.43 196.282 11.2805 195.908 11.2805 195.459C11.2805 194.999 11.43 194.631 11.7292 194.353C12.0283 194.064 12.3969 193.92 12.8349 193.92C13.2729 193.92 13.6415 194.064 13.9406 194.353C14.2398 194.631 14.3893 194.999 14.3893 195.459C14.3893 195.908 14.2398 196.282 13.9406 196.582C13.6415 196.881 13.2729 197.031 12.8349 197.031ZM20.1588 197.095C19.2293 197.095 18.4013 196.865 17.6749 196.405C16.9484 195.946 16.3768 195.283 15.9602 194.417C15.5542 193.54 15.3512 192.498 15.3512 191.289C15.3512 190.081 15.5542 189.044 15.9602 188.178C16.3768 187.301 16.9484 186.633 17.6749 186.173C18.4013 185.714 19.2293 185.484 20.1588 185.484C21.0882 185.484 21.9162 185.714 22.6427 186.173C23.3691 186.633 23.9353 187.301 24.3413 188.178C24.758 189.044 24.9663 190.081 24.9663 191.289C24.9663 192.498 24.758 193.54 24.3413 194.417C23.9353 195.283 23.3691 195.946 22.6427 196.405C21.9162 196.865 21.0882 197.095 20.1588 197.095ZM20.1588 194.898C20.8425 194.898 21.3767 194.604 21.7613 194.016C22.1566 193.428 22.3542 192.519 22.3542 191.289C22.3542 190.06 22.1566 189.151 21.7613 188.563C21.3767 187.975 20.8425 187.681 20.1588 187.681C19.4857 187.681 18.9515 187.975 18.5562 188.563C18.1716 189.151 17.9793 190.06 17.9793 191.289C17.9793 192.519 18.1716 193.428 18.5562 194.016C18.9515 194.604 19.4857 194.898 20.1588 194.898ZM31.0352 197.095C30.1057 197.095 29.2778 196.865 28.5513 196.405C27.8248 195.946 27.2533 195.283 26.8366 194.417C26.4306 193.54 26.2277 192.498 26.2277 191.289C26.2277 190.081 26.4306 189.044 26.8366 188.178C27.2533 187.301 27.8248 186.633 28.5513 186.173C29.2778 185.714 30.1057 185.484 31.0352 185.484C31.9647 185.484 32.7926 185.714 33.5191 186.173C34.2456 186.633 34.8118 187.301 35.2178 188.178C35.6344 189.044 35.8427 190.081 35.8427 191.289C35.8427 192.498 35.6344 193.54 35.2178 194.417C34.8118 195.283 34.2456 195.946 33.5191 196.405C32.7926 196.865 31.9647 197.095 31.0352 197.095ZM31.0352 194.898C31.7189 194.898 32.2531 194.604 32.6377 194.016C33.033 193.428 33.2306 192.519 33.2306 191.289C33.2306 190.06 33.033 189.151 32.6377 188.563C32.2531 187.975 31.7189 187.681 31.0352 187.681C30.3621 187.681 29.828 187.975 29.4327 188.563C29.0481 189.151 28.8558 190.06 28.8558 191.289C28.8558 192.519 29.0481 193.428 29.4327 194.016C29.828 194.604 30.3621 194.898 31.0352 194.898ZM39.7002 191.738C38.8775 191.738 38.2045 191.46 37.681 190.905C37.1682 190.338 36.9118 189.584 36.9118 188.643C36.9118 187.702 37.1682 186.954 37.681 186.398C38.2045 185.831 38.8775 185.548 39.7002 185.548C40.5228 185.548 41.1905 185.831 41.7033 186.398C42.2161 186.954 42.4725 187.702 42.4725 188.643C42.4725 189.584 42.2161 190.338 41.7033 190.905C41.1905 191.46 40.5228 191.738 39.7002 191.738ZM46.3827 185.676H48.2896L40.6296 196.902H38.7226L46.3827 185.676ZM39.7002 190.423C40.0634 190.423 40.3465 190.274 40.5495 189.974C40.7632 189.675 40.87 189.231 40.87 188.643C40.87 188.055 40.7632 187.611 40.5495 187.312C40.3465 187.013 40.0634 186.863 39.7002 186.863C39.3476 186.863 39.0645 187.018 38.8508 187.328C38.6372 187.628 38.5303 188.066 38.5303 188.643C38.5303 189.221 38.6372 189.664 38.8508 189.974C39.0645 190.274 39.3476 190.423 39.7002 190.423ZM47.3121 197.031C46.7779 197.031 46.2972 196.908 45.8698 196.662C45.4532 196.405 45.1273 196.042 44.8923 195.571C44.6573 195.101 44.5398 194.556 44.5398 193.936C44.5398 193.315 44.6573 192.77 44.8923 192.3C45.1273 191.829 45.4532 191.471 45.8698 191.225C46.2972 190.969 46.7779 190.84 47.3121 190.84C48.1347 190.84 48.8025 191.124 49.3153 191.69C49.8387 192.246 50.1005 192.995 50.1005 193.936C50.1005 194.876 49.8387 195.63 49.3153 196.197C48.8025 196.753 48.1347 197.031 47.3121 197.031ZM47.3121 195.716C47.6753 195.716 47.9585 195.566 48.1614 195.267C48.3751 194.957 48.4819 194.513 48.4819 193.936C48.4819 193.358 48.3751 192.92 48.1614 192.62C47.9585 192.31 47.6753 192.155 47.3121 192.155C46.9596 192.155 46.6764 192.305 46.4628 192.604C46.2491 192.904 46.1423 193.348 46.1423 193.936C46.1423 194.524 46.2491 194.967 46.4628 195.267C46.6764 195.566 46.9596 195.716 47.3121 195.716Z" fill="#C9B342"/>
<path d="M658.421 69.8514V81.0775H655.825V71.9362H653.582V69.8514H658.421ZM668.046 75.1758C668.602 75.4538 669.024 75.8173 669.312 76.2663C669.611 76.7154 669.761 77.2339 669.761 77.8219C669.761 78.5169 669.563 79.1263 669.168 79.6502C668.773 80.1634 668.217 80.5643 667.501 80.853C666.786 81.131 665.958 81.27 665.018 81.27C664.077 81.27 663.25 81.131 662.534 80.853C661.829 80.5643 661.278 80.1634 660.883 79.6502C660.499 79.1263 660.306 78.5169 660.306 77.8219C660.306 77.2339 660.45 76.7154 660.739 76.2663C661.038 75.8173 661.46 75.4538 662.005 75.1758C661.588 74.9192 661.268 74.5984 661.043 74.2135C660.819 73.8179 660.707 73.3689 660.707 72.8664C660.707 72.2142 660.888 71.6476 661.252 71.1664C661.615 70.6853 662.122 70.3165 662.774 70.0599C663.426 69.7926 664.174 69.6589 665.018 69.6589C665.872 69.6589 666.625 69.7926 667.277 70.0599C667.939 70.3165 668.452 70.6853 668.816 71.1664C669.179 71.6476 669.36 72.2142 669.36 72.8664C669.36 73.3689 669.248 73.8179 669.024 74.2135C668.8 74.5984 668.474 74.9192 668.046 75.1758ZM665.018 71.5674C664.494 71.5674 664.072 71.6957 663.752 71.9523C663.442 72.1982 663.287 72.5403 663.287 72.9787C663.287 73.4063 663.442 73.7431 663.752 73.989C664.061 74.2349 664.483 74.3579 665.018 74.3579C665.552 74.3579 665.979 74.2349 666.3 73.989C666.62 73.7431 666.78 73.4063 666.78 72.9787C666.78 72.5403 666.62 72.1982 666.3 71.9523C665.979 71.6957 665.552 71.5674 665.018 71.5674ZM665.018 79.3615C665.669 79.3615 666.182 79.2172 666.556 78.9285C666.941 78.6291 667.133 78.2335 667.133 77.7417C667.133 77.2499 666.941 76.8597 666.556 76.571C666.182 76.2823 665.669 76.138 665.018 76.138C664.377 76.138 663.869 76.2823 663.495 76.571C663.121 76.8597 662.934 77.2499 662.934 77.7417C662.934 78.2442 663.121 78.6398 663.495 78.9285C663.869 79.2172 664.377 79.3615 665.018 79.3615ZM672.58 81.2058C672.142 81.2058 671.773 81.0561 671.474 80.7568C671.175 80.4574 671.025 80.0832 671.025 79.6341C671.025 79.1744 671.175 78.8055 671.474 78.5276C671.773 78.2389 672.142 78.0946 672.58 78.0946C673.018 78.0946 673.386 78.2389 673.685 78.5276C673.985 78.8055 674.134 79.1744 674.134 79.6341C674.134 80.0832 673.985 80.4574 673.685 80.7568C673.386 81.0561 673.018 81.2058 672.58 81.2058ZM679.904 81.27C678.975 81.27 678.147 81.0401 677.42 80.5803C676.694 80.1206 676.122 79.4577 675.705 78.5917C675.3 77.715 675.097 76.6726 675.097 75.4644C675.097 74.2563 675.3 73.2192 675.705 72.3532C676.122 71.4765 676.694 70.8083 677.42 70.3485C678.147 69.8888 678.975 69.6589 679.904 69.6589C680.834 69.6589 681.661 69.8888 682.388 70.3485C683.114 70.8083 683.681 71.4765 684.087 72.3532C684.503 73.2192 684.712 74.2563 684.712 75.4644C684.712 76.6726 684.503 77.715 684.087 78.5917C683.681 79.4577 683.114 80.1206 682.388 80.5803C681.661 81.0401 680.834 81.27 679.904 81.27ZM679.904 79.0728C680.588 79.0728 681.122 78.7788 681.507 78.1908C681.902 77.6028 682.1 76.694 682.1 75.4644C682.1 74.2349 681.902 73.3261 681.507 72.7381C681.122 72.1501 680.588 71.856 679.904 71.856C679.231 71.856 678.697 72.1501 678.302 72.7381C677.917 73.3261 677.725 74.2349 677.725 75.4644C677.725 76.694 677.917 77.6028 678.302 78.1908C678.697 78.7788 679.231 79.0728 679.904 79.0728ZM690.781 81.27C689.851 81.27 689.023 81.0401 688.297 80.5803C687.57 80.1206 686.999 79.4577 686.582 78.5917C686.176 77.715 685.973 76.6726 685.973 75.4644C685.973 74.2563 686.176 73.2192 686.582 72.3532C686.999 71.4765 687.57 70.8083 688.297 70.3485C689.023 69.8888 689.851 69.6589 690.781 69.6589C691.71 69.6589 692.538 69.8888 693.265 70.3485C693.991 70.8083 694.557 71.4765 694.963 72.3532C695.38 73.2192 695.588 74.2563 695.588 75.4644C695.588 76.6726 695.38 77.715 694.963 78.5917C694.557 79.4577 693.991 80.1206 693.265 80.5803C692.538 81.0401 691.71 81.27 690.781 81.27ZM690.781 79.0728C691.464 79.0728 691.999 78.7788 692.383 78.1908C692.778 77.6028 692.976 76.694 692.976 75.4644C692.976 74.2349 692.778 73.3261 692.383 72.7381C691.999 72.1501 691.464 71.856 690.781 71.856C690.108 71.856 689.573 72.1501 689.178 72.7381C688.794 73.3261 688.601 74.2349 688.601 75.4644C688.601 76.694 688.794 77.6028 689.178 78.1908C689.573 78.7788 690.108 79.0728 690.781 79.0728ZM699.445 75.9135C698.622 75.9135 697.949 75.6355 697.426 75.0795C696.913 74.5129 696.657 73.7591 696.657 72.8183C696.657 71.8774 696.913 71.129 697.426 70.5731C697.949 70.0064 698.622 69.7231 699.445 69.7231C700.268 69.7231 700.935 70.0064 701.448 70.5731C701.961 71.129 702.217 71.8774 702.217 72.8183C702.217 73.7591 701.961 74.5129 701.448 75.0795C700.935 75.6355 700.268 75.9135 699.445 75.9135ZM706.127 69.8514H708.034L700.374 81.0775H698.467L706.127 69.8514ZM699.445 74.5984C699.808 74.5984 700.091 74.4487 700.294 74.1494C700.508 73.85 700.615 73.4063 700.615 72.8183C700.615 72.2303 700.508 71.7866 700.294 71.4872C700.091 71.1878 699.808 71.0381 699.445 71.0381C699.092 71.0381 698.809 71.1932 698.596 71.5032C698.382 71.8026 698.275 72.2409 698.275 72.8183C698.275 73.3956 698.382 73.8393 698.596 74.1494C698.809 74.4487 699.092 74.5984 699.445 74.5984ZM707.057 81.2058C706.523 81.2058 706.042 81.0828 705.615 80.8369C705.198 80.5803 704.872 80.2168 704.637 79.7464C704.402 79.276 704.285 78.7307 704.285 78.1106C704.285 77.4905 704.402 76.9452 704.637 76.4748C704.872 76.0044 705.198 75.6462 705.615 75.4003C706.042 75.1437 706.523 75.0154 707.057 75.0154C707.88 75.0154 708.547 75.2987 709.06 75.8654C709.584 76.4213 709.845 77.1697 709.845 78.1106C709.845 79.0515 709.584 79.8052 709.06 80.3719C708.547 80.9278 707.88 81.2058 707.057 81.2058ZM707.057 79.8907C707.42 79.8907 707.703 79.7411 707.906 79.4417C708.12 79.1316 708.227 78.6879 708.227 78.1106C708.227 77.5333 708.12 77.0949 707.906 76.7955C707.703 76.4855 707.42 76.3305 707.057 76.3305C706.704 76.3305 706.421 76.4801 706.208 76.7795C705.994 77.0789 705.887 77.5226 705.887 78.1106C705.887 78.6986 705.994 79.1423 706.208 79.4417C706.421 79.7411 706.704 79.8907 707.057 79.8907Z" fill="#C9B342"/>
<path d="M729.247 502.167V504.284H720.77V502.6L725.097 498.511C725.556 498.072 725.866 497.698 726.026 497.388C726.186 497.067 726.267 496.752 726.267 496.442C726.267 495.993 726.112 495.651 725.802 495.415C725.503 495.17 725.059 495.047 724.472 495.047C723.98 495.047 723.537 495.143 723.142 495.335C722.746 495.517 722.415 495.795 722.148 496.169L720.257 494.95C720.695 494.298 721.299 493.79 722.068 493.427C722.837 493.053 723.719 492.865 724.712 492.865C725.545 492.865 726.272 493.004 726.892 493.282C727.522 493.55 728.008 493.935 728.35 494.437C728.702 494.929 728.879 495.512 728.879 496.185C728.879 496.795 728.75 497.367 728.494 497.901C728.238 498.436 727.741 499.045 727.004 499.729L724.424 502.167H729.247ZM739.069 493.058V494.742L734.902 504.284H732.082L736.104 495.175H732.386V497.003H730.079V493.058H739.069ZM740.916 504.412C740.478 504.412 740.11 504.263 739.811 503.963C739.511 503.664 739.362 503.29 739.362 502.841C739.362 502.381 739.511 502.012 739.811 501.734C740.11 501.445 740.478 501.301 740.916 501.301C741.354 501.301 741.723 501.445 742.022 501.734C742.321 502.012 742.471 502.381 742.471 502.841C742.471 503.29 742.321 503.664 742.022 503.963C741.723 504.263 741.354 504.412 740.916 504.412ZM748.241 504.476C747.311 504.476 746.483 504.247 745.757 503.787C745.03 503.327 744.459 502.664 744.042 501.798C743.636 500.922 743.433 499.879 743.433 498.671C743.433 497.463 743.636 496.426 744.042 495.56C744.459 494.683 745.03 494.015 745.757 493.555C746.483 493.095 747.311 492.865 748.241 492.865C749.17 492.865 749.998 493.095 750.725 493.555C751.451 494.015 752.017 494.683 752.423 495.56C752.84 496.426 753.048 497.463 753.048 498.671C753.048 499.879 752.84 500.922 752.423 501.798C752.017 502.664 751.451 503.327 750.725 503.787C749.998 504.247 749.17 504.476 748.241 504.476ZM748.241 502.279C748.924 502.279 749.459 501.985 749.843 501.397C750.238 500.809 750.436 499.901 750.436 498.671C750.436 497.441 750.238 496.533 749.843 495.945C749.459 495.357 748.924 495.063 748.241 495.063C747.568 495.063 747.033 495.357 746.638 495.945C746.254 496.533 746.061 497.441 746.061 498.671C746.061 499.901 746.254 500.809 746.638 501.397C747.033 501.985 747.568 502.279 748.241 502.279ZM759.116 504.476C758.187 504.476 757.359 504.247 756.632 503.787C755.906 503.327 755.334 502.664 754.918 501.798C754.512 500.922 754.309 499.879 754.309 498.671C754.309 497.463 754.512 496.426 754.918 495.56C755.334 494.683 755.906 494.015 756.632 493.555C757.359 493.095 758.187 492.865 759.116 492.865C760.046 492.865 760.874 493.095 761.6 493.555C762.327 494.015 762.893 494.683 763.299 495.56C763.716 496.426 763.924 497.463 763.924 498.671C763.924 499.879 763.716 500.922 763.299 501.798C762.893 502.664 762.327 503.327 761.6 503.787C760.874 504.247 760.046 504.476 759.116 504.476ZM759.116 502.279C759.8 502.279 760.334 501.985 760.719 501.397C761.114 500.809 761.312 499.901 761.312 498.671C761.312 497.441 761.114 496.533 760.719 495.945C760.334 495.357 759.8 495.063 759.116 495.063C758.443 495.063 757.909 495.357 757.514 495.945C757.129 496.533 756.937 497.441 756.937 498.671C756.937 499.901 757.129 500.809 757.514 501.397C757.909 501.985 758.443 502.279 759.116 502.279ZM767.781 499.12C766.959 499.12 766.286 498.842 765.762 498.286C765.25 497.719 764.993 496.966 764.993 496.025C764.993 495.084 765.25 494.336 765.762 493.78C766.286 493.213 766.959 492.93 767.781 492.93C768.604 492.93 769.272 493.213 769.785 493.78C770.297 494.336 770.554 495.084 770.554 496.025C770.554 496.966 770.297 497.719 769.785 498.286C769.272 498.842 768.604 499.12 767.781 499.12ZM774.464 493.058H776.371L768.711 504.284H766.804L774.464 493.058ZM767.781 497.805C768.145 497.805 768.428 497.655 768.631 497.356C768.845 497.057 768.951 496.613 768.951 496.025C768.951 495.437 768.845 494.993 768.631 494.694C768.428 494.394 768.145 494.245 767.781 494.245C767.429 494.245 767.146 494.4 766.932 494.71C766.719 495.009 766.612 495.447 766.612 496.025C766.612 496.602 766.719 497.046 766.932 497.356C767.146 497.655 767.429 497.805 767.781 497.805ZM775.393 504.412C774.859 504.412 774.379 504.289 773.951 504.043C773.535 503.787 773.209 503.423 772.974 502.953C772.739 502.482 772.621 501.937 772.621 501.317C772.621 500.697 772.739 500.152 772.974 499.681C773.209 499.211 773.535 498.853 773.951 498.607C774.379 498.35 774.859 498.222 775.393 498.222C776.216 498.222 776.884 498.505 777.397 499.072C777.92 499.628 778.182 500.376 778.182 501.317C778.182 502.258 777.92 503.012 777.397 503.578C776.884 504.134 776.216 504.412 775.393 504.412ZM775.393 503.097C775.757 503.097 776.04 502.948 776.243 502.648C776.456 502.338 776.563 501.894 776.563 501.317C776.563 500.74 776.456 500.301 776.243 500.002C776.04 499.692 775.757 499.537 775.393 499.537C775.041 499.537 774.758 499.687 774.544 499.986C774.33 500.285 774.224 500.729 774.224 501.317C774.224 501.905 774.33 502.349 774.544 502.648C774.758 502.948 775.041 503.097 775.393 503.097Z" fill="#C9B342"/>
<path d="M167.36 23.3432H170.913C171.835 23.3432 172.649 23.5303 173.356 23.9045C174.062 24.2704 174.61 24.786 175.001 25.4512C175.391 26.1081 175.587 26.8607 175.587 27.7089C175.587 28.5571 175.391 29.3138 175.001 29.9791C174.61 30.636 174.062 31.1516 173.356 31.5258C172.649 31.8917 171.835 32.0746 170.913 32.0746H167.36V23.3432ZM170.863 31.2763C171.627 31.2763 172.296 31.1267 172.869 30.8273C173.443 30.5196 173.887 30.0996 174.203 29.5675C174.518 29.0269 174.677 28.4074 174.677 27.7089C174.677 27.0104 174.518 26.395 174.203 25.8629C173.887 25.3223 173.443 24.9024 172.869 24.603C172.296 24.2954 171.627 24.1415 170.863 24.1415H168.283V31.2763H170.863ZM183.179 29.0685H177.695C177.745 29.7504 178.006 30.3034 178.48 30.7275C178.954 31.1433 179.552 31.3512 180.275 31.3512C180.682 31.3512 181.056 31.2805 181.397 31.1391C181.738 30.9895 182.032 30.7732 182.282 30.4905L182.78 31.0643C182.489 31.4136 182.124 31.6797 181.683 31.8626C181.252 32.0455 180.773 32.137 180.25 32.137C179.577 32.137 178.979 31.9956 178.455 31.7129C177.94 31.4218 177.537 31.0227 177.246 30.5155C176.955 30.0082 176.81 29.4345 176.81 28.7941C176.81 28.1538 176.947 27.58 177.221 27.0728C177.503 26.5656 177.886 26.1705 178.368 25.8878C178.858 25.6051 179.407 25.4637 180.013 25.4637C180.619 25.4637 181.164 25.6051 181.646 25.8878C182.128 26.1705 182.506 26.5656 182.78 27.0728C183.054 27.5717 183.191 28.1455 183.191 28.7941L183.179 29.0685ZM180.013 26.2246C179.382 26.2246 178.85 26.4284 178.418 26.8358C177.994 27.2349 177.753 27.7588 177.695 28.4074H182.344C182.286 27.7588 182.04 27.2349 181.609 26.8358C181.185 26.4284 180.653 26.2246 180.013 26.2246ZM190.38 25.5136L187.464 32.0746H186.554L183.65 25.5136H184.572L187.028 31.1017L189.508 25.5136H190.38ZM197.152 29.0685H191.668C191.718 29.7504 191.979 30.3034 192.453 30.7275C192.927 31.1433 193.525 31.3512 194.248 31.3512C194.656 31.3512 195.03 31.2805 195.37 31.1391C195.711 30.9895 196.005 30.7732 196.255 30.4905L196.753 31.0643C196.463 31.4136 196.097 31.6797 195.656 31.8626C195.225 32.0455 194.746 32.137 194.223 32.137C193.55 32.137 192.952 31.9956 192.428 31.7129C191.914 31.4218 191.51 31.0227 191.219 30.5155C190.929 30.0082 190.783 29.4345 190.783 28.7941C190.783 28.1538 190.92 27.58 191.194 27.0728C191.477 26.5656 191.859 26.1705 192.341 25.8878C192.831 25.6051 193.38 25.4637 193.986 25.4637C194.593 25.4637 195.137 25.6051 195.619 25.8878C196.101 26.1705 196.479 26.5656 196.753 27.0728C197.027 27.5717 197.164 28.1455 197.164 28.7941L197.152 29.0685ZM193.986 26.2246C193.355 26.2246 192.823 26.4284 192.391 26.8358C191.967 27.2349 191.727 27.7588 191.668 28.4074H196.317C196.259 27.7588 196.014 27.2349 195.582 26.8358C195.158 26.4284 194.626 26.2246 193.986 26.2246ZM198.966 22.8193H199.851V32.0746H198.966V22.8193ZM204.993 32.137C204.362 32.137 203.793 31.9956 203.285 31.7129C202.779 31.4218 202.38 31.0227 202.089 30.5155C201.798 30.0082 201.652 29.4345 201.652 28.7941C201.652 28.1538 201.798 27.58 202.089 27.0728C202.38 26.5656 202.779 26.1705 203.285 25.8878C203.793 25.6051 204.362 25.4637 204.993 25.4637C205.625 25.4637 206.194 25.6051 206.7 25.8878C207.208 26.1705 207.602 26.5656 207.884 27.0728C208.176 27.58 208.321 28.1538 208.321 28.7941C208.321 29.4345 208.176 30.0082 207.884 30.5155C207.602 31.0227 207.208 31.4218 206.7 31.7129C206.194 31.9956 205.625 32.137 204.993 32.137ZM204.993 31.3512C205.458 31.3512 205.874 31.2472 206.239 31.0393C206.613 30.8231 206.904 30.5196 207.112 30.1288C207.32 29.7379 207.423 29.2931 207.423 28.7941C207.423 28.2952 207.32 27.8503 207.112 27.4595C206.904 27.0686 206.613 26.7692 206.239 26.5614C205.874 26.3451 205.458 26.2371 204.993 26.2371C204.528 26.2371 204.108 26.3451 203.734 26.5614C203.369 26.7692 203.078 27.0686 202.861 27.4595C202.654 27.8503 202.55 28.2952 202.55 28.7941C202.55 29.2931 202.654 29.7379 202.861 30.1288C203.078 30.5196 203.369 30.8231 203.734 31.0393C204.108 31.2472 204.528 31.3512 204.993 31.3512ZM213.506 25.4637C214.12 25.4637 214.677 25.6051 215.176 25.8878C215.674 26.1622 216.064 26.5531 216.347 27.0603C216.63 27.5675 216.771 28.1455 216.771 28.7941C216.771 29.451 216.63 30.0332 216.347 30.5404C216.064 31.0476 215.674 31.4427 215.176 31.7254C214.685 31.9998 214.129 32.137 213.506 32.137C212.973 32.137 212.492 32.0289 212.06 31.8127C211.636 31.5882 211.287 31.2639 211.013 30.8398V34.4945H210.128V25.5136H210.975V26.8108C211.241 26.3785 211.59 26.0458 212.022 25.813C212.462 25.5802 212.957 25.4637 213.506 25.4637ZM213.443 31.3512C213.9 31.3512 214.316 31.2472 214.69 31.0393C215.064 30.8231 215.354 30.5196 215.562 30.1288C215.778 29.7379 215.886 29.2931 215.886 28.7941C215.886 28.2952 215.778 27.8544 215.562 27.4719C215.354 27.0811 215.064 26.7776 214.69 26.5614C214.316 26.3451 213.9 26.2371 213.443 26.2371C212.978 26.2371 212.558 26.3451 212.184 26.5614C211.819 26.7776 211.527 27.0811 211.312 27.4719C211.104 27.8544 211 28.2952 211 28.7941C211 29.2931 211.104 29.7379 211.312 30.1288C211.527 30.5196 211.819 30.8231 212.184 31.0393C212.558 31.2472 212.978 31.3512 213.443 31.3512ZM226.751 25.4637C227.574 25.4637 228.218 25.7007 228.683 26.1747C229.157 26.6487 229.394 27.3472 229.394 28.2702V32.0746H228.509V28.3576C228.509 27.6757 228.342 27.1559 228.01 26.7984C227.686 26.4408 227.225 26.262 226.627 26.262C225.946 26.262 225.41 26.4741 225.019 26.8982C224.628 27.314 224.433 27.8918 224.433 28.632V32.0746H223.548V28.3576C223.548 27.6757 223.382 27.1559 223.05 26.7984C222.725 26.4408 222.26 26.262 221.654 26.262C220.98 26.262 220.445 26.4741 220.046 26.8982C219.655 27.314 219.46 27.8918 219.46 28.632V32.0746H218.575V25.5136H219.422V26.7111C219.655 26.3119 219.979 26.0043 220.395 25.788C220.81 25.5718 221.288 25.4637 221.828 25.4637C222.376 25.4637 222.85 25.5802 223.249 25.813C223.656 26.0458 223.959 26.3909 224.159 26.8483C224.4 26.4159 224.745 26.0791 225.193 25.8379C225.65 25.5884 226.17 25.4637 226.751 25.4637ZM237.526 29.0685H232.042C232.092 29.7504 232.354 30.3034 232.828 30.7275C233.301 31.1433 233.899 31.3512 234.622 31.3512C235.029 31.3512 235.403 31.2805 235.744 31.1391C236.085 30.9895 236.38 30.7732 236.629 30.4905L237.128 31.0643C236.836 31.4136 236.471 31.6797 236.031 31.8626C235.599 32.0455 235.121 32.137 234.597 32.137C233.924 32.137 233.326 31.9956 232.803 31.7129C232.287 31.4218 231.885 31.0227 231.594 30.5155C231.302 30.0082 231.157 29.4345 231.157 28.7941C231.157 28.1538 231.294 27.58 231.569 27.0728C231.851 26.5656 232.234 26.1705 232.715 25.8878C233.206 25.6051 233.754 25.4637 234.361 25.4637C234.967 25.4637 235.512 25.6051 235.993 25.8878C236.475 26.1705 236.853 26.5656 237.128 27.0728C237.402 27.5717 237.539 28.1455 237.539 28.7941L237.526 29.0685ZM234.361 26.2246C233.729 26.2246 233.197 26.4284 232.765 26.8358C232.341 27.2349 232.1 27.7588 232.042 28.4074H236.691C236.633 27.7588 236.388 27.2349 235.956 26.8358C235.532 26.4284 235.001 26.2246 234.361 26.2246ZM242.68 25.4637C243.503 25.4637 244.156 25.7049 244.637 26.1872C245.128 26.6612 245.373 27.3555 245.373 28.2702V32.0746H244.488V28.3576C244.488 27.6757 244.318 27.1559 243.977 26.7984C243.636 26.4408 243.15 26.262 242.518 26.262C241.812 26.262 241.251 26.4741 240.836 26.8982C240.429 27.314 240.225 27.8918 240.225 28.632V32.0746H239.34V25.5136H240.188V26.7235C240.429 26.3244 240.761 26.0167 241.185 25.8005C241.617 25.576 242.116 25.4637 242.68 25.4637ZM251.228 31.6755C251.061 31.8252 250.854 31.9416 250.605 32.0247C250.363 32.0996 250.11 32.137 249.844 32.137C249.229 32.137 248.756 31.9707 248.424 31.6381C248.091 31.3055 247.925 30.8356 247.925 30.2286V26.262H246.753V25.5136H247.925V24.0792H248.81V25.5136H250.804V26.262H248.81V30.1787C248.81 30.5695 248.905 30.8689 249.097 31.0768C249.296 31.2763 249.578 31.3761 249.944 31.3761C250.127 31.3761 250.301 31.347 250.468 31.2888C250.642 31.2306 250.792 31.1474 250.916 31.0393L251.228 31.6755Z" fill="white" fill-opacity="0.2"/>
<path d="M84.1227 609.596C85.2362 609.596 86.1087 609.862 86.7402 610.394C87.3716 610.926 87.6874 611.658 87.6874 612.589C87.6874 613.52 87.3716 614.253 86.7402 614.785C86.1087 615.309 85.2362 615.57 84.1227 615.57H81.7795V618.327H80.8572V609.596H84.1227ZM84.0978 614.76C84.962 614.76 85.6226 614.573 86.0796 614.198C86.5366 613.816 86.7651 613.28 86.7651 612.589C86.7651 611.883 86.5366 611.342 86.0796 610.968C85.6226 610.586 84.962 610.394 84.0978 610.394H81.7795V614.76H84.0978ZM89.6161 609.072H90.5011V618.327H89.6161V609.072ZM95.257 611.716C96.1134 611.716 96.7696 611.933 97.2263 612.365C97.6839 612.789 97.9118 613.421 97.9118 614.261V618.327H97.0643V617.304C96.8648 617.646 96.5702 617.911 96.1793 618.103C95.7974 618.294 95.3407 618.389 94.8083 618.389C94.0774 618.389 93.496 618.215 93.0633 617.866C92.6315 617.516 92.4152 617.055 92.4152 616.481C92.4152 615.924 92.6146 615.475 93.0135 615.134C93.4212 614.793 94.0649 614.622 94.9454 614.622H97.0269V614.223C97.0269 613.658 96.8693 613.23 96.5532 612.939C96.2381 612.639 95.7769 612.49 95.1697 612.49C94.7549 612.49 94.356 612.56 93.9732 612.702C93.5913 612.834 93.2627 613.021 92.9885 613.263L92.5897 612.602C92.9227 612.319 93.3215 612.103 93.7862 611.953C94.2519 611.795 94.7424 611.716 95.257 611.716ZM94.9454 617.691C95.444 617.691 95.8722 617.579 96.2292 617.354C96.5871 617.122 96.8524 616.788 97.0269 616.356V615.284H94.9703C93.8486 615.284 93.2877 615.675 93.2877 616.456C93.2877 616.838 93.4337 617.142 93.7239 617.367C94.015 617.583 94.4219 617.691 94.9454 617.691ZM105.703 611.766L102.425 619.113C102.159 619.729 101.851 620.165 101.502 620.423C101.153 620.68 100.734 620.809 100.243 620.809C99.9283 620.809 99.6327 620.759 99.3585 620.66C99.0843 620.56 98.8475 620.41 98.6481 620.211L99.0594 619.55C99.3924 619.882 99.7912 620.048 100.256 620.048C100.555 620.048 100.809 619.966 101.016 619.799C101.233 619.632 101.432 619.35 101.615 618.951L101.901 618.315L98.9721 611.766H99.8945L102.362 617.342L104.83 611.766H105.703ZM113.664 617.928C113.498 618.078 113.29 618.194 113.04 618.277C112.8 618.352 112.546 618.389 112.28 618.389C111.666 618.389 111.192 618.223 110.859 617.891C110.527 617.558 110.361 617.088 110.361 616.481V612.514H109.189V611.766H110.361V610.332H111.246V611.766H113.24V612.514H111.246V616.431C111.246 616.822 111.342 617.122 111.532 617.329C111.732 617.529 112.015 617.629 112.38 617.629C112.563 617.629 112.738 617.599 112.903 617.541C113.078 617.483 113.227 617.4 113.352 617.292L113.664 617.928ZM117.723 618.389C117.092 618.389 116.522 618.248 116.016 617.965C115.509 617.674 115.11 617.275 114.819 616.768C114.528 616.261 114.383 615.687 114.383 615.047C114.383 614.406 114.528 613.832 114.819 613.325C115.11 612.818 115.509 612.423 116.016 612.14C116.522 611.858 117.092 611.716 117.723 611.716C118.355 611.716 118.924 611.858 119.431 612.14C119.937 612.423 120.333 612.818 120.615 613.325C120.906 613.832 121.051 614.406 121.051 615.047C121.051 615.687 120.906 616.261 120.615 616.768C120.333 617.275 119.937 617.674 119.431 617.965C118.924 618.248 118.355 618.389 117.723 618.389ZM117.723 617.604C118.189 617.604 118.604 617.499 118.97 617.292C119.344 617.075 119.635 616.772 119.842 616.381C120.05 615.99 120.154 615.546 120.154 615.047C120.154 614.548 120.05 614.103 119.842 613.712C119.635 613.321 119.344 613.021 118.97 612.814C118.604 612.597 118.189 612.49 117.723 612.49C117.258 612.49 116.838 612.597 116.464 612.814C116.099 613.021 115.808 613.321 115.592 613.712C115.385 614.103 115.28 614.548 115.28 615.047C115.28 615.546 115.385 615.99 115.592 616.381C115.808 616.772 116.099 617.075 116.464 617.292C116.838 617.499 117.258 617.604 117.723 617.604ZM132.476 617.529V618.327H126.307V609.596H132.289V610.394H127.229V613.5H131.741V614.286H127.229V617.529H132.476ZM136.653 611.716C137.51 611.716 138.166 611.933 138.623 612.365C139.08 612.789 139.308 613.421 139.308 614.261V618.327H138.461V617.304C138.261 617.646 137.967 617.911 137.576 618.103C137.194 618.294 136.737 618.389 136.205 618.389C135.474 618.389 134.893 618.215 134.46 617.866C134.028 617.516 133.812 617.055 133.812 616.481C133.812 615.924 134.011 615.475 134.41 615.134C134.818 614.793 135.461 614.622 136.342 614.622H138.423V614.223C138.423 613.658 138.266 613.23 137.95 612.939C137.635 612.639 137.173 612.49 136.566 612.49C136.151 612.49 135.753 612.56 135.37 612.702C134.988 612.834 134.659 613.021 134.385 613.263L133.986 612.602C134.319 612.319 134.718 612.103 135.183 611.953C135.648 611.795 136.139 611.716 136.653 611.716ZM136.342 617.691C136.84 617.691 137.269 617.579 137.626 617.354C137.984 617.122 138.249 616.788 138.423 616.356V615.284H136.367C135.245 615.284 134.684 615.675 134.684 616.456C134.684 616.838 134.83 617.142 135.12 617.367C135.412 617.583 135.818 617.691 136.342 617.691ZM142.56 613.051C142.767 612.61 143.075 612.277 143.482 612.053C143.898 611.828 144.409 611.716 145.015 611.716V612.577L144.803 612.564C144.113 612.564 143.574 612.776 143.183 613.2C142.792 613.625 142.597 614.219 142.597 614.984V618.327H141.712V611.766H142.56V613.051ZM149.958 611.716C150.781 611.716 151.432 611.958 151.915 612.44C152.404 612.914 152.65 613.608 152.65 614.523V618.327H151.765V614.61C151.765 613.928 151.594 613.408 151.254 613.051C150.913 612.694 150.427 612.514 149.796 612.514C149.089 612.514 148.528 612.727 148.113 613.151C147.705 613.567 147.503 614.144 147.503 614.884V618.327H146.618V611.766H147.465V612.976C147.705 612.577 148.038 612.269 148.462 612.053C148.894 611.828 149.393 611.716 149.958 611.716Z" fill="white" fill-opacity="0.2"/>
<path d="M27.1444 382.401C28.2579 382.401 29.1304 382.667 29.7619 383.199C30.3934 383.731 30.7091 384.463 30.7091 385.394C30.7091 386.325 30.3934 387.058 29.7619 387.59C29.1304 388.113 28.2579 388.375 27.1444 388.375H24.8012V391.132H23.8789V382.401H27.1444ZM27.1195 387.565C27.9837 387.565 28.6443 387.377 29.1013 387.003C29.5583 386.621 29.7868 386.085 29.7868 385.394C29.7868 384.688 29.5583 384.147 29.1013 383.773C28.6443 383.39 27.9837 383.199 27.1195 383.199H24.8012V387.565H27.1195ZM32.6382 381.877H33.5232V391.132H32.6382V381.877ZM38.2789 384.521C39.1347 384.521 39.7911 384.738 40.2482 385.17C40.7052 385.594 40.9337 386.225 40.9337 387.066V391.132H40.0862V390.109C39.8867 390.45 39.5917 390.716 39.2012 390.907C38.8189 391.099 38.3619 391.194 37.8302 391.194C37.0989 391.194 36.5173 391.02 36.0852 390.67C35.6531 390.321 35.4371 389.86 35.4371 389.286C35.4371 388.729 35.6365 388.28 36.0354 387.939C36.4425 387.598 37.0864 387.427 37.9673 387.427H40.0488V387.028C40.0488 386.462 39.8908 386.035 39.5751 385.743C39.2594 385.444 38.7982 385.294 38.1916 385.294C37.7761 385.294 37.3773 385.365 36.9951 385.506C36.6128 385.639 36.2846 385.826 36.0104 386.068L35.6116 385.407C35.9439 385.124 36.3428 384.908 36.8081 384.758C37.2734 384.6 37.7637 384.521 38.2789 384.521ZM37.9673 390.496C38.4658 390.496 38.8937 390.384 39.2511 390.159C39.6083 389.927 39.8743 389.593 40.0488 389.161V388.088H37.9922C36.8705 388.088 36.3096 388.48 36.3096 389.261C36.3096 389.643 36.455 389.947 36.7458 390.172C37.0366 390.388 37.4438 390.496 37.9673 390.496ZM48.7247 384.571L45.4467 391.918C45.1807 392.533 44.8733 392.97 44.5243 393.228C44.1753 393.485 43.7557 393.614 43.2655 393.614C42.9497 393.614 42.6547 393.564 42.3805 393.465C42.1063 393.365 41.8695 393.215 41.6701 393.016L42.0814 392.354C42.4137 392.687 42.8126 392.853 43.2779 392.853C43.5771 392.853 43.8304 392.77 44.0382 392.604C44.2542 392.437 44.4536 392.155 44.6365 391.756L44.9232 391.12L41.9941 384.571H42.9165L45.3843 390.147L47.8522 384.571H48.7247ZM56.6855 390.733C56.5194 390.883 56.3116 390.999 56.0623 391.082C55.8214 391.157 55.568 391.194 55.302 391.194C54.6872 391.194 54.2136 391.028 53.8811 390.695C53.5488 390.363 53.3826 389.893 53.3826 389.286V385.319H52.211V384.571H53.3826V383.137H54.2675V384.571H56.2618V385.319H54.2675V389.236C54.2675 389.627 54.3631 389.927 54.5542 390.134C54.7536 390.334 55.0362 390.433 55.4017 390.433C55.5846 390.433 55.7591 390.404 55.9252 390.346C56.0997 390.288 56.2493 390.205 56.3739 390.097L56.6855 390.733ZM60.7451 391.194C60.1135 391.194 59.5443 391.053 59.0375 390.77C58.5306 390.479 58.1317 390.08 57.841 389.573C57.5501 389.066 57.4047 388.492 57.4047 387.851C57.4047 387.211 57.5501 386.637 57.841 386.13C58.1317 385.623 58.5306 385.228 59.0375 384.945C59.5443 384.663 60.1135 384.521 60.7451 384.521C61.3765 384.521 61.9457 384.663 62.4526 384.945C62.9595 385.228 63.3541 385.623 63.6367 386.13C63.9275 386.637 64.073 387.211 64.073 387.851C64.073 388.492 63.9275 389.066 63.6367 389.573C63.3541 390.08 62.9595 390.479 62.4526 390.77C61.9457 391.053 61.3765 391.194 60.7451 391.194ZM60.7451 390.409C61.2103 390.409 61.6258 390.304 61.9915 390.097C62.3654 389.88 62.6562 389.577 62.8639 389.186C63.0716 388.795 63.1755 388.35 63.1755 387.851C63.1755 387.353 63.0716 386.908 62.8639 386.517C62.6562 386.126 62.3654 385.826 61.9915 385.619C61.6258 385.402 61.2103 385.294 60.7451 385.294C60.2797 385.294 59.8601 385.402 59.4862 385.619C59.1206 385.826 58.8297 386.126 58.6137 386.517C58.4059 386.908 58.3021 387.353 58.3021 387.851C58.3021 388.35 58.4059 388.795 58.6137 389.186C58.8297 389.577 59.1206 389.88 59.4862 390.097C59.8601 390.304 60.2797 390.409 60.7451 390.409ZM75.4983 390.334V391.132H69.3287V382.401H75.3114V383.199H70.251V386.305H74.763V387.091H70.251V390.334H75.4983ZM79.6754 384.521C80.5313 384.521 81.1877 384.738 81.6447 385.17C82.1018 385.594 82.3302 386.225 82.3302 387.066V391.132H81.4827V390.109C81.2832 390.45 80.9883 390.716 80.5977 390.907C80.2155 391.099 79.7585 391.194 79.2267 391.194C78.4955 391.194 77.9139 391.02 77.4817 390.67C77.0497 390.321 76.8336 389.86 76.8336 389.286C76.8336 388.729 77.033 388.28 77.4319 387.939C77.8391 387.598 78.483 387.427 79.3638 387.427H81.4453V387.028C81.4453 386.462 81.2874 386.035 80.9716 385.743C80.656 385.444 80.1948 385.294 79.5881 385.294C79.1727 385.294 78.7739 385.365 78.3916 385.506C78.0094 385.639 77.6811 385.826 77.4069 386.068L77.0081 385.407C77.3405 385.124 77.7394 384.908 78.2046 384.758C78.67 384.6 79.1603 384.521 79.6754 384.521ZM79.3638 390.496C79.8624 390.496 80.2903 390.384 80.6476 390.159C81.0049 389.927 81.2708 389.593 81.4453 389.161V388.088H79.3887C78.267 388.088 77.7061 388.48 77.7061 389.261C77.7061 389.643 77.8516 389.947 78.1423 390.172C78.4332 390.388 78.8403 390.496 79.3638 390.496ZM85.5814 385.856C85.7892 385.415 86.0966 385.082 86.5037 384.858C86.9192 384.633 87.4302 384.521 88.0368 384.521V385.382L87.8249 385.369C87.1353 385.369 86.5951 385.581 86.2046 386.005C85.8141 386.43 85.6188 387.024 85.6188 387.789V391.132H84.7338V384.571H85.5814V385.856ZM92.9796 384.521C93.8023 384.521 94.454 384.763 94.9365 385.245C95.4261 385.719 95.6719 386.413 95.6719 387.328V391.132H94.7869V387.415C94.7869 386.733 94.616 386.213 94.2759 385.856C93.9349 385.498 93.4488 385.319 92.8176 385.319C92.1107 385.319 91.5498 385.531 91.135 385.956C90.7272 386.372 90.5242 386.949 90.5242 387.689V391.132H89.6393V384.571H90.4868V385.781C90.7272 385.382 91.0602 385.074 91.484 384.858C91.9157 384.633 92.4143 384.521 92.9796 384.521Z" fill="white" fill-opacity="0.2"/>
<path d="M6.96217 210.607H2.10121L1.05423 212.94H0.0945015L4.08299 204.208H4.99286L8.98131 212.94H8.00915L6.96217 210.607ZM6.62564 209.859L4.53169 205.169L2.43774 209.859H6.62564ZM16.1595 203.684V212.94H15.312V211.643C15.0461 212.084 14.6929 212.42 14.2525 212.653C13.8205 212.885 13.3302 213.002 12.7818 213.002C12.1669 213.002 11.6101 212.86 11.1116 212.578C10.613 212.296 10.2225 211.9 9.93997 211.393C9.65748 210.886 9.51619 210.308 9.51619 209.659C9.51619 209.011 9.65748 208.432 9.93997 207.925C10.2225 207.418 10.613 207.027 11.1116 206.753C11.6101 206.47 12.1669 206.329 12.7818 206.329C13.3136 206.329 13.7913 206.441 14.2151 206.666C14.6473 206.882 15.0004 207.202 15.2746 207.626V203.684H16.1595ZM12.8565 212.216C13.3136 212.216 13.7249 212.112 14.0905 211.904C14.4644 211.688 14.7553 211.385 14.963 210.994C15.179 210.603 15.287 210.158 15.287 209.659C15.287 209.16 15.179 208.716 14.963 208.325C14.7553 207.933 14.4644 207.634 14.0905 207.426C13.7249 207.21 13.3136 207.102 12.8565 207.102C12.3913 207.102 11.9716 207.21 11.5977 207.426C11.2321 207.634 10.9413 207.933 10.7252 208.325C10.5175 208.716 10.4136 209.16 10.4136 209.659C10.4136 210.158 10.5175 210.603 10.7252 210.994C10.9413 211.385 11.2321 211.688 11.5977 211.904C11.9716 212.112 12.3913 212.216 12.8565 212.216ZM24.1332 206.379L21.2166 212.94H20.3067L17.4026 206.379H18.3249L20.7804 211.967L23.2607 206.379H24.1332ZM25.3795 206.379H26.2644V212.94H25.3795V206.379ZM25.8282 204.944C25.6454 204.944 25.4917 204.882 25.367 204.757C25.2424 204.632 25.1801 204.483 25.1801 204.308C25.1801 204.142 25.2424 203.996 25.367 203.872C25.4917 203.747 25.6454 203.684 25.8282 203.684C26.011 203.684 26.1647 203.747 26.2894 203.872C26.414 203.988 26.4763 204.129 26.4763 204.296C26.4763 204.478 26.414 204.632 26.2894 204.757C26.1647 204.882 26.011 204.944 25.8282 204.944ZM30.4842 213.002C29.9523 213.002 29.4413 212.927 28.9511 212.778C28.4691 212.62 28.0911 212.424 27.8169 212.191L28.2158 211.493C28.49 211.709 28.8348 211.888 29.2503 212.029C29.6657 212.162 30.0978 212.229 30.5465 212.229C31.1448 212.229 31.5851 212.137 31.8677 211.954C32.1585 211.763 32.3039 211.497 32.3039 211.156C32.3039 210.915 32.225 210.727 32.0671 210.595C31.9092 210.453 31.7098 210.35 31.4689 210.283C31.2279 210.208 30.908 210.138 30.5091 210.071C29.9773 209.971 29.5494 209.871 29.2253 209.771C28.9013 209.664 28.6229 209.485 28.3903 209.235C28.1659 208.986 28.0537 208.641 28.0537 208.2C28.0537 207.651 28.2822 207.202 28.7392 206.853C29.1962 206.503 29.8319 206.329 30.6462 206.329C31.07 206.329 31.4938 206.387 31.9176 206.503C32.3413 206.611 32.6903 206.757 32.9645 206.94L32.5782 207.651C32.038 207.277 31.3941 207.09 30.6462 207.09C30.0812 207.09 29.6532 207.189 29.3624 207.389C29.0799 207.589 28.9387 207.851 28.9387 208.175C28.9387 208.424 29.0175 208.624 29.1755 208.774C29.3416 208.923 29.5452 209.036 29.7862 209.11C30.0271 209.177 30.3596 209.248 30.7833 209.322C31.3068 209.422 31.7264 209.522 32.0422 209.622C32.3579 209.722 32.628 209.892 32.8524 210.133C33.0767 210.375 33.1889 210.707 33.1889 211.131C33.1889 211.705 32.9479 212.162 32.466 212.503C31.9923 212.835 31.3318 213.002 30.4842 213.002ZM37.5046 213.002C36.8731 213.002 36.3039 212.86 35.7971 212.578C35.2901 212.287 34.8913 211.888 34.6005 211.381C34.3097 210.874 34.1643 210.3 34.1643 209.659C34.1643 209.019 34.3097 208.445 34.6005 207.938C34.8913 207.431 35.2901 207.035 35.7971 206.753C36.3039 206.47 36.8731 206.329 37.5046 206.329C38.1361 206.329 38.7053 206.47 39.2122 206.753C39.719 207.035 40.1137 207.431 40.3963 207.938C40.6871 208.445 40.8325 209.019 40.8325 209.659C40.8325 210.3 40.6871 210.874 40.3963 211.381C40.1137 211.888 39.719 212.287 39.2122 212.578C38.7053 212.86 38.1361 213.002 37.5046 213.002ZM37.5046 212.216C37.9699 212.216 38.3854 212.112 38.751 211.904C39.125 211.688 39.4157 211.385 39.6235 210.994C39.8312 210.603 39.9351 210.158 39.9351 209.659C39.9351 209.16 39.8312 208.716 39.6235 208.325C39.4157 207.933 39.125 207.634 38.751 207.426C38.3854 207.21 37.9699 207.102 37.5046 207.102C37.0393 207.102 36.6197 207.21 36.2458 207.426C35.8801 207.634 35.5893 207.933 35.3733 208.325C35.1655 208.716 35.0617 209.16 35.0617 209.659C35.0617 210.158 35.1655 210.603 35.3733 210.994C35.5893 211.385 35.8801 211.688 36.2458 211.904C36.6197 212.112 37.0393 212.216 37.5046 212.216ZM43.4867 207.663C43.6944 207.222 44.0019 206.89 44.4091 206.666C44.8246 206.441 45.3356 206.329 45.9421 206.329V207.189L45.7303 207.177C45.0406 207.177 44.5005 207.389 44.1099 207.813C43.7194 208.237 43.5241 208.832 43.5241 209.597V212.94H42.6392V206.379H43.4867V207.663ZM49.3506 213.002C48.8187 213.002 48.3077 212.927 47.8175 212.778C47.3355 212.62 46.9575 212.424 46.6833 212.191L47.0822 211.493C47.3564 211.709 47.7012 211.888 48.1167 212.029C48.5321 212.162 48.9642 212.229 49.4129 212.229C50.0112 212.229 50.4515 212.137 50.7341 211.954C51.0249 211.763 51.1703 211.497 51.1703 211.156C51.1703 210.915 51.0914 210.727 50.9335 210.595C50.7756 210.453 50.5762 210.35 50.3353 210.283C50.0943 210.208 49.7744 210.138 49.3755 210.071C48.8437 209.971 48.4158 209.871 48.0917 209.771C47.7677 209.664 47.4893 209.485 47.2566 209.235C47.0323 208.986 46.9201 208.641 46.9201 208.2C46.9201 207.651 47.1486 207.202 47.6056 206.853C48.0626 206.503 48.6983 206.329 49.5126 206.329C49.9364 206.329 50.3602 206.387 50.784 206.503C51.2077 206.611 51.5567 206.757 51.8309 206.94L51.4446 207.651C50.9044 207.277 50.2605 207.09 49.5126 207.09C48.9476 207.09 48.5196 207.189 48.2288 207.389C47.9463 207.589 47.8051 207.851 47.8051 208.175C47.8051 208.424 47.8839 208.624 48.0419 208.774C48.208 208.923 48.4116 209.036 48.6526 209.11C48.8935 209.177 49.226 209.248 49.6497 209.322C50.1732 209.422 50.5928 209.522 50.9086 209.622C51.2243 209.722 51.4944 209.892 51.7188 210.133C51.9431 210.375 52.0553 210.707 52.0553 211.131C52.0553 211.705 51.8143 212.162 51.3324 212.503C50.8587 212.835 50.1982 213.002 49.3506 213.002Z" fill="white" fill-opacity="0.2"/>
<path d="M656.586 90.3452H653.52V89.5469H660.574V90.3452H657.508V98.2783H656.586V90.3452ZM666.887 95.2722H661.403C661.453 95.9538 661.715 96.5071 662.188 96.9312C662.662 97.3463 663.26 97.5548 663.983 97.5548C664.391 97.5548 664.765 97.4836 665.105 97.3428C665.446 97.1931 665.741 96.9766 665.99 96.6942L666.488 97.2679C666.198 97.6172 665.832 97.8827 665.392 98.0662C664.96 98.2489 664.482 98.3407 663.958 98.3407C663.285 98.3407 662.687 98.199 662.163 97.9166C661.649 97.6252 661.245 97.2261 660.954 96.7191C660.664 96.2113 660.518 95.6375 660.518 94.9978C660.518 94.3572 660.655 93.7834 660.929 93.2764C661.213 92.7686 661.594 92.3739 662.076 92.0915C662.567 91.8081 663.115 91.6674 663.721 91.6674C664.329 91.6674 664.873 91.8081 665.354 92.0915C665.837 92.3739 666.214 92.7686 666.488 93.2764C666.763 93.7754 666.9 94.3492 666.9 94.9978L666.887 95.2722ZM663.721 92.4282C663.09 92.4282 662.559 92.6314 662.126 93.0394C661.702 93.4386 661.462 93.9625 661.403 94.6111H666.052C665.994 93.9625 665.749 93.4386 665.317 93.0394C664.893 92.6314 664.361 92.4282 663.721 92.4282ZM670.812 91.6674C671.668 91.6674 672.324 91.883 672.782 92.316C673.239 92.7401 673.467 93.3718 673.467 94.2119V98.2783H672.62V97.2555C672.42 97.5958 672.125 97.8622 671.735 98.0538C671.352 98.2444 670.895 98.3407 670.364 98.3407C669.632 98.3407 669.051 98.166 668.619 97.8168C668.186 97.4675 667.971 97.006 667.971 96.4322C667.971 95.8745 668.17 95.4254 668.569 95.0851C668.976 94.7439 669.62 94.5737 670.501 94.5737H672.582V94.1745C672.582 93.6088 672.424 93.1802 672.109 92.8898C671.793 92.5904 671.332 92.4407 670.725 92.4407C670.309 92.4407 669.911 92.5111 669.529 92.6528C669.146 92.7855 668.818 92.9726 668.544 93.2141L668.145 92.553C668.477 92.2697 668.876 92.054 669.342 91.9044C669.806 91.7458 670.297 91.6674 670.812 91.6674ZM670.501 97.6421C670.999 97.6421 671.427 97.5299 671.785 97.3054C672.142 97.0719 672.408 96.7396 672.582 96.3075V95.2348H670.526C669.404 95.2348 668.843 95.625 668.843 96.4073C668.843 96.7895 668.988 97.0933 669.279 97.3178C669.57 97.5334 669.977 97.6421 670.501 97.6421ZM684.047 91.6674C684.869 91.6674 685.514 91.9044 685.979 92.3783C686.452 92.8523 686.689 93.5509 686.689 94.4739V98.2783H685.804V94.5612C685.804 93.8787 685.638 93.3593 685.305 93.002C684.981 92.6439 684.52 92.4657 683.922 92.4657C683.241 92.4657 682.705 92.6777 682.314 93.1018C681.924 93.517 681.728 94.0952 681.728 94.8356V98.2783H680.843V94.5612C680.843 93.8787 680.678 93.3593 680.345 93.002C680.021 92.6439 679.556 92.4657 678.949 92.4657C678.276 92.4657 677.74 92.6777 677.341 93.1018C676.951 93.517 676.755 94.0952 676.755 94.8356V98.2783H675.87V91.7173H676.718V92.9147C676.951 92.5156 677.275 92.2073 677.69 91.9917C678.106 91.7752 678.584 91.6674 679.123 91.6674C679.672 91.6674 680.145 91.7832 680.544 92.0166C680.952 92.2492 681.255 92.594 681.454 93.0519C681.695 92.6189 682.04 92.2821 682.489 92.0416C682.946 91.7921 683.465 91.6674 684.047 91.6674Z" fill="white" fill-opacity="0.2"/>
<path d="M724.068 521.287C723.419 521.287 722.796 521.183 722.198 520.975C721.608 520.768 721.151 520.493 720.827 520.152L721.188 519.441C721.504 519.757 721.924 520.015 722.447 520.214C722.971 520.406 723.511 520.501 724.068 520.501C724.848 520.501 725.434 520.36 725.825 520.077C726.216 519.786 726.411 519.412 726.411 518.955C726.411 518.605 726.303 518.327 726.087 518.119C725.879 517.911 725.621 517.753 725.314 517.645C725.007 517.528 724.579 517.403 724.03 517.271C723.374 517.104 722.851 516.946 722.46 516.797C722.069 516.639 721.732 516.402 721.45 516.086C721.176 515.769 721.039 515.342 721.039 514.801C721.039 514.36 721.155 513.961 721.388 513.604C721.62 513.237 721.978 512.947 722.46 512.73C722.941 512.514 723.54 512.406 724.255 512.406C724.753 512.406 725.239 512.476 725.713 512.618C726.194 512.751 726.61 512.938 726.959 513.179L726.648 513.915C726.282 513.674 725.892 513.496 725.476 513.379C725.06 513.254 724.653 513.192 724.255 513.192C723.49 513.192 722.913 513.342 722.522 513.641C722.14 513.932 721.949 514.31 721.949 514.776C721.949 515.125 722.053 515.408 722.26 515.624C722.477 515.832 722.742 515.994 723.058 516.111C723.382 516.218 723.814 516.34 724.354 516.472C724.994 516.63 725.509 516.789 725.9 516.946C726.299 517.096 726.635 517.329 726.909 517.645C727.184 517.952 727.321 518.373 727.321 518.905C727.321 519.346 727.201 519.748 726.959 520.115C726.727 520.472 726.365 520.759 725.875 520.975C725.384 521.183 724.782 521.287 724.068 521.287ZM732.596 520.813C732.43 520.963 732.222 521.08 731.972 521.162C731.732 521.237 731.478 521.275 731.212 521.275C730.598 521.275 730.124 521.108 729.791 520.776C729.459 520.443 729.293 519.973 729.293 519.366V515.4H728.121V514.651H729.293V513.217H730.178V514.651H732.172V515.4H730.178V519.316C730.178 519.708 730.274 520.007 730.464 520.214C730.664 520.414 730.947 520.514 731.312 520.514C731.495 520.514 731.67 520.484 731.835 520.426C732.01 520.369 732.159 520.285 732.284 520.177L732.596 520.813ZM736.5 514.601C737.356 514.601 738.012 514.818 738.47 515.25C738.926 515.674 739.155 516.306 739.155 517.146V521.212H738.308V520.189C738.108 520.531 737.813 520.796 737.423 520.988C737.04 521.179 736.583 521.275 736.052 521.275C735.32 521.275 734.739 521.1 734.307 520.751C733.874 520.402 733.659 519.94 733.659 519.366C733.659 518.809 733.858 518.36 734.257 518.019C734.664 517.678 735.307 517.508 736.189 517.508H738.27V517.109C738.27 516.543 738.112 516.115 737.797 515.824C737.481 515.524 737.019 515.375 736.413 515.375C735.997 515.375 735.599 515.445 735.217 515.587C734.834 515.72 734.506 515.907 734.232 516.148L733.833 515.487C734.165 515.205 734.564 514.988 735.03 514.838C735.494 514.681 735.985 514.601 736.5 514.601ZM736.189 520.576C736.687 520.576 737.115 520.464 737.473 520.239C737.83 520.007 738.096 519.674 738.27 519.242V518.169H736.214C735.092 518.169 734.531 518.56 734.531 519.341C734.531 519.724 734.676 520.027 734.967 520.252C735.258 520.468 735.665 520.576 736.189 520.576ZM744.3 521.275C743.652 521.275 743.071 521.133 742.555 520.851C742.049 520.568 741.65 520.173 741.359 519.666C741.068 519.15 740.922 518.572 740.922 517.932C740.922 517.291 741.068 516.717 741.359 516.21C741.65 515.704 742.049 515.308 742.555 515.026C743.071 514.743 743.652 514.601 744.3 514.601C744.866 514.601 745.368 514.714 745.808 514.938C746.257 515.155 746.611 515.475 746.868 515.899L746.207 516.348C745.991 516.023 745.717 515.782 745.385 515.624C745.053 515.458 744.691 515.375 744.3 515.375C743.827 515.375 743.398 515.483 743.016 515.699C742.642 515.907 742.348 516.206 742.132 516.597C741.924 516.988 741.82 517.433 741.82 517.932C741.82 518.439 741.924 518.888 742.132 519.279C742.348 519.661 742.642 519.961 743.016 520.177C743.398 520.385 743.827 520.489 744.3 520.489C744.691 520.489 745.053 520.41 745.385 520.252C745.717 520.094 745.991 519.853 746.207 519.528L746.868 519.977C746.611 520.402 746.257 520.726 745.808 520.95C745.36 521.167 744.857 521.275 744.3 521.275ZM750.939 517.919L749.394 519.341V521.212H748.509V511.957H749.394V518.231L753.307 514.651H754.404L751.6 517.333L754.666 521.212H753.581L750.939 517.919ZM755.897 514.651H756.782V521.212H755.897V514.651ZM756.346 513.217C756.163 513.217 756.009 513.154 755.885 513.03C755.76 512.905 755.698 512.755 755.698 512.581C755.698 512.414 755.76 512.269 755.885 512.144C756.009 512.019 756.163 511.957 756.346 511.957C756.528 511.957 756.682 512.019 756.807 512.144C756.932 512.261 756.994 512.402 756.994 512.568C756.994 512.751 756.932 512.905 756.807 513.03C756.682 513.154 756.528 513.217 756.346 513.217ZM762.585 514.601C763.408 514.601 764.059 514.843 764.542 515.325C765.031 515.799 765.277 516.493 765.277 517.408V521.212H764.392V517.495C764.392 516.814 764.221 516.293 763.881 515.936C763.54 515.579 763.054 515.4 762.423 515.4C761.716 515.4 761.155 515.612 760.74 516.036C760.332 516.452 760.13 517.029 760.13 517.77V521.212H759.245V514.651H760.092V515.861C760.333 515.462 760.665 515.155 761.089 514.938C761.521 514.714 762.02 514.601 762.585 514.601ZM773.774 514.651V520.414C773.774 521.529 773.5 522.352 772.951 522.884C772.411 523.425 771.593 523.695 770.496 523.695C769.889 523.695 769.312 523.603 768.764 523.42C768.223 523.246 767.782 523 767.442 522.684L767.891 522.011C768.206 522.293 768.589 522.514 769.038 522.672C769.494 522.829 769.973 522.909 770.471 522.909C771.302 522.909 771.912 522.714 772.303 522.322C772.693 521.94 772.889 521.341 772.889 520.526V519.691C772.615 520.107 772.253 520.422 771.805 520.639C771.364 520.855 770.873 520.963 770.334 520.963C769.719 520.963 769.158 520.83 768.651 520.564C768.153 520.289 767.758 519.911 767.467 519.429C767.184 518.938 767.043 518.385 767.043 517.77C767.043 517.154 767.184 516.605 767.467 516.123C767.758 515.641 768.153 515.267 768.651 515.001C769.15 514.734 769.711 514.601 770.334 514.601C770.89 514.601 771.393 514.714 771.842 514.938C772.291 515.163 772.652 515.487 772.926 515.911V514.651H773.774ZM770.421 520.177C770.895 520.177 771.322 520.077 771.705 519.878C772.087 519.67 772.382 519.383 772.59 519.017C772.805 518.651 772.914 518.236 772.914 517.77C772.914 517.304 772.805 516.892 772.59 516.535C772.382 516.169 772.087 515.886 771.705 515.687C771.331 515.479 770.903 515.375 770.421 515.375C769.948 515.375 769.519 515.475 769.137 515.674C768.764 515.874 768.468 516.156 768.252 516.522C768.044 516.889 767.941 517.304 767.941 517.77C767.941 518.236 768.044 518.651 768.252 519.017C768.468 519.383 768.764 519.67 769.137 519.878C769.519 520.077 769.948 520.177 770.421 520.177Z" fill="white" fill-opacity="0.2"/>
<g filter="url(#filter11_i_0_5455)">
<path d="M383.037 293.448L372.725 283.134H372.339L356.356 299.121L370.019 312.786V334.832L347.978 312.786H328.515L384.584 368.867V307.372L376.85 299.637L383.037 293.448Z" fill="url(#paint11_linear_0_5455)"/>
<path d="M402.5 283.134L392.189 293.448H392.446L398.633 299.637L390.9 307.372V368.867L446.968 312.786H426.861L404.82 334.832V312.786L418.482 299.121L402.5 283.134Z" fill="url(#paint12_linear_0_5455)"/>
</g>
<g filter="url(#filter12_i_0_5455)">
<path d="M398.117 278.493L387.806 268.179L377.495 278.493L387.806 288.807L398.117 278.493Z" fill="url(#paint13_linear_0_5455)"/>
</g>
<defs>
<filter id="filter0_i_0_5455" x="388.316" y="54.3486" width="238.581" height="222.598" filterUnits="userSpaceOnUse" color-interpolation-filters="sRGB">
<feFlood flood-opacity="0" result="BackgroundImageFix"/>
<feBlend mode="normal" in="SourceGraphic" in2="BackgroundImageFix" result="shape"/>
<feColorMatrix in="SourceAlpha" type="matrix" values="0 0 0 0 0 0 0 0 0 0 0 0 0 0 0 0 0 0 127 0" result="hardAlpha"/>
<feOffset dy="4"/>
<feGaussianBlur stdDeviation="25"/>
<feComposite in2="hardAlpha" operator="arithmetic" k2="-1" k3="1"/>
<feColorMatrix type="matrix" values="0 0 0 0 0.554167 0 0 0 0 0.466667 0 0 0 0 0 0 0 0 1 0"/>
<feBlend mode="normal" in2="shape" result="effect1_innerShadow_0_5455"/>
</filter>
<filter id="filter1_i_0_5455" x="420.908" y="205.639" width="231.083" height="366.755" filterUnits="userSpaceOnUse" color-interpolation-filters="sRGB">
<feFlood flood-opacity="0" result="BackgroundImageFix"/>
<feBlend mode="normal" in="SourceGraphic" in2="BackgroundImageFix" result="shape"/>
<feColorMatrix in="SourceAlpha" type="matrix" values="0 0 0 0 0 0 0 0 0 0 0 0 0 0 0 0 0 0 127 0" result="hardAlpha"/>
<feOffset dy="4"/>
<feGaussianBlur stdDeviation="25"/>
<feComposite in2="hardAlpha" operator="arithmetic" k2="-1" k3="1"/>
<feColorMatrix type="matrix" values="0 0 0 0 0.554167 0 0 0 0 0.466667 0 0 0 0 0 0 0 0 1 0"/>
<feBlend mode="normal" in2="shape" result="effect1_innerShadow_0_5455"/>
</filter>
<filter id="filter2_i_0_5455" x="291.251" y="54.3486" width="97.0652" height="169.483" filterUnits="userSpaceOnUse" color-interpolation-filters="sRGB">
<feFlood flood-opacity="0" result="BackgroundImageFix"/>
<feBlend mode="normal" in="SourceGraphic" in2="BackgroundImageFix" result="shape"/>
<feColorMatrix in="SourceAlpha" type="matrix" values="0 0 0 0 0 0 0 0 0 0 0 0 0 0 0 0 0 0 127 0" result="hardAlpha"/>
<feOffset dy="4"/>
<feGaussianBlur stdDeviation="25"/>
<feComposite in2="hardAlpha" operator="arithmetic" k2="-1" k3="1"/>
<feColorMatrix type="matrix" values="0 0 0 0 0.554167 0 0 0 0 0.466667 0 0 0 0 0 0 0 0 1 0"/>
<feBlend mode="normal" in2="shape" result="effect1_innerShadow_0_5455"/>
</filter>
<filter id="filter3_i_0_5455" x="268.61" y="72.8505" width="80.8798" height="155.067" filterUnits="userSpaceOnUse" color-interpolation-filters="sRGB">
<feFlood flood-opacity="0" result="BackgroundImageFix"/>
<feBlend mode="normal" in="SourceGraphic" in2="BackgroundImageFix" result="shape"/>
<feColorMatrix in="SourceAlpha" type="matrix" values="0 0 0 0 0 0 0 0 0 0 0 0 0 0 0 0 0 0 127 0" result="hardAlpha"/>
<feOffset dy="4"/>
<feGaussianBlur stdDeviation="25"/>
<feComposite in2="hardAlpha" operator="arithmetic" k2="-1" k3="1"/>
<feColorMatrix type="matrix" values="0 0 0 0 0.554167 0 0 0 0 0.466667 0 0 0 0 0 0 0 0 1 0"/>
<feBlend mode="normal" in2="shape" result="effect1_innerShadow_0_5455"/>
</filter>
<filter id="filter4_i_0_5455" x="240.108" y="83.0654" width="100.325" height="151.589" filterUnits="userSpaceOnUse" color-interpolation-filters="sRGB">
<feFlood flood-opacity="0" result="BackgroundImageFix"/>
<feBlend mode="normal" in="SourceGraphic" in2="BackgroundImageFix" result="shape"/>
<feColorMatrix in="SourceAlpha" type="matrix" values="0 0 0 0 0 0 0 0 0 0 0 0 0 0 0 0 0 0 127 0" result="hardAlpha"/>
<feOffset dy="4"/>
<feGaussianBlur stdDeviation="25"/>
<feComposite in2="hardAlpha" operator="arithmetic" k2="-1" k3="1"/>
<feColorMatrix type="matrix" values="0 0 0 0 0.554167 0 0 0 0 0.466667 0 0 0 0 0 0 0 0 1 0"/>
<feBlend mode="normal" in2="shape" result="effect1_innerShadow_0_5455"/>
</filter>
<filter id="filter5_i_0_5455" x="190.53" y="99.908" width="138.503" height="152.217" filterUnits="userSpaceOnUse" color-interpolation-filters="sRGB">
<feFlood flood-opacity="0" result="BackgroundImageFix"/>
<feBlend mode="normal" in="SourceGraphic" in2="BackgroundImageFix" result="shape"/>
<feColorMatrix in="SourceAlpha" type="matrix" values="0 0 0 0 0 0 0 0 0 0 0 0 0 0 0 0 0 0 127 0" result="hardAlpha"/>
<feOffset dy="4"/>
<feGaussianBlur stdDeviation="25"/>
<feComposite in2="hardAlpha" operator="arithmetic" k2="-1" k3="1"/>
<feColorMatrix type="matrix" values="0 0 0 0 0.554167 0 0 0 0 0.466667 0 0 0 0 0 0 0 0 1 0"/>
<feBlend mode="normal" in2="shape" result="effect1_innerShadow_0_5455"/>
</filter>
<filter id="filter6_i_0_5455" x="174.997" y="143.583" width="134.203" height="116.291" filterUnits="userSpaceOnUse" color-interpolation-filters="sRGB">
<feFlood flood-opacity="0" result="BackgroundImageFix"/>
<feBlend mode="normal" in="SourceGraphic" in2="BackgroundImageFix" result="shape"/>
<feColorMatrix in="SourceAlpha" type="matrix" values="0 0 0 0 0 0 0 0 0 0 0 0 0 0 0 0 0 0 127 0" result="hardAlpha"/>
<feOffset dy="4"/>
<feGaussianBlur stdDeviation="25"/>
<feComposite in2="hardAlpha" operator="arithmetic" k2="-1" k3="1"/>
<feColorMatrix type="matrix" values="0 0 0 0 0.554167 0 0 0 0 0.466667 0 0 0 0 0 0 0 0 1 0"/>
<feBlend mode="normal" in2="shape" result="effect1_innerShadow_0_5455"/>
</filter>
<filter id="filter7_i_0_5455" x="170.234" y="162.955" width="132.754" height="99.6268" filterUnits="userSpaceOnUse" color-interpolation-filters="sRGB">
<feFlood flood-opacity="0" result="BackgroundImageFix"/>
<feBlend mode="normal" in="SourceGraphic" in2="BackgroundImageFix" result="shape"/>
<feColorMatrix in="SourceAlpha" type="matrix" values="0 0 0 0 0 0 0 0 0 0 0 0 0 0 0 0 0 0 127 0" result="hardAlpha"/>
<feOffset dy="4"/>
<feGaussianBlur stdDeviation="25"/>
<feComposite in2="hardAlpha" operator="arithmetic" k2="-1" k3="1"/>
<feColorMatrix type="matrix" values="0 0 0 0 0.554167 0 0 0 0 0.466667 0 0 0 0 0 0 0 0 1 0"/>
<feBlend mode="normal" in2="shape" result="effect1_innerShadow_0_5455"/>
</filter>
<filter id="filter8_i_0_5455" x="125.81" y="169.727" width="175.274" height="142.174" filterUnits="userSpaceOnUse" color-interpolation-filters="sRGB">
<feFlood flood-opacity="0" result="BackgroundImageFix"/>
<feBlend mode="normal" in="SourceGraphic" in2="BackgroundImageFix" result="shape"/>
<feColorMatrix in="SourceAlpha" type="matrix" values="0 0 0 0 0 0 0 0 0 0 0 0 0 0 0 0 0 0 127 0" result="hardAlpha"/>
<feOffset dy="4"/>
<feGaussianBlur stdDeviation="25"/>
<feComposite in2="hardAlpha" operator="arithmetic" k2="-1" k3="1"/>
<feColorMatrix type="matrix" values="0 0 0 0 0.554167 0 0 0 0 0.466667 0 0 0 0 0 0 0 0 1 0"/>
<feBlend mode="normal" in2="shape" result="effect1_innerShadow_0_5455"/>
</filter>
<filter id="filter9_i_0_5455" x="124.64" y="293.025" width="171.252" height="155.723" filterUnits="userSpaceOnUse" color-interpolation-filters="sRGB">
<feFlood flood-opacity="0" result="BackgroundImageFix"/>
<feBlend mode="normal" in="SourceGraphic" in2="BackgroundImageFix" result="shape"/>
<feColorMatrix in="SourceAlpha" type="matrix" values="0 0 0 0 0 0 0 0 0 0 0 0 0 0 0 0 0 0 127 0" result="hardAlpha"/>
<feOffset dy="4"/>
<feGaussianBlur stdDeviation="25"/>
<feComposite in2="hardAlpha" operator="arithmetic" k2="-1" k3="1"/>
<feColorMatrix type="matrix" values="0 0 0 0 0.554167 0 0 0 0 0.466667 0 0 0 0 0 0 0 0 1 0"/>
<feBlend mode="normal" in2="shape" result="effect1_innerShadow_0_5455"/>
</filter>
<filter id="filter10_i_0_5455" x="157.256" y="368.591" width="312.541" height="216.699" filterUnits="userSpaceOnUse" color-interpolation-filters="sRGB">
<feFlood flood-opacity="0" result="BackgroundImageFix"/>
<feBlend mode="normal" in="SourceGraphic" in2="BackgroundImageFix" result="shape"/>
<feColorMatrix in="SourceAlpha" type="matrix" values="0 0 0 0 0 0 0 0 0 0 0 0 0 0 0 0 0 0 127 0" result="hardAlpha"/>
<feOffset dy="4"/>
<feGaussianBlur stdDeviation="25"/>
<feComposite in2="hardAlpha" operator="arithmetic" k2="-1" k3="1"/>
<feColorMatrix type="matrix" values="0 0 0 0 0.554167 0 0 0 0 0.466667 0 0 0 0 0 0 0 0 1 0"/>
<feBlend mode="normal" in2="shape" result="effect1_innerShadow_0_5455"/>
</filter>
<filter id="filter11_i_0_5455" x="328.515" y="283.134" width="120.453" height="87.7328" filterUnits="userSpaceOnUse" color-interpolation-filters="sRGB">
<feFlood flood-opacity="0" result="BackgroundImageFix"/>
<feBlend mode="normal" in="SourceGraphic" in2="BackgroundImageFix" result="shape"/>
<feColorMatrix in="SourceAlpha" type="matrix" values="0 0 0 0 0 0 0 0 0 0 0 0 0 0 0 0 0 0 127 0" result="hardAlpha"/>
<feOffset dx="2" dy="2"/>
<feGaussianBlur stdDeviation="5"/>
<feComposite in2="hardAlpha" operator="arithmetic" k2="-1" k3="1"/>
<feColorMatrix type="matrix" values="0 0 0 0 0 0 0 0 0 0 0 0 0 0 0 0 0 0 0.6 0"/>
<feBlend mode="normal" in2="shape" result="effect1_innerShadow_0_5455"/>
</filter>
<filter id="filter12_i_0_5455" x="377.495" y="268.179" width="22.6226" height="22.6276" filterUnits="userSpaceOnUse" color-interpolation-filters="sRGB">
<feFlood flood-opacity="0" result="BackgroundImageFix"/>
<feBlend mode="normal" in="SourceGraphic" in2="BackgroundImageFix" result="shape"/>
<feColorMatrix in="SourceAlpha" type="matrix" values="0 0 0 0 0 0 0 0 0 0 0 0 0 0 0 0 0 0 127 0" result="hardAlpha"/>
<feOffset dx="2" dy="2"/>
<feGaussianBlur stdDeviation="5"/>
<feComposite in2="hardAlpha" operator="arithmetic" k2="-1" k3="1"/>
<feColorMatrix type="matrix" values="0 0 0 0 0 0 0 0 0 0 0 0 0 0 0 0 0 0 0.6 0"/>
<feBlend mode="normal" in2="shape" result="effect1_innerShadow_0_5455"/>
</filter>
<linearGradient id="paint0_linear_0_5455" x1="616.252" y1="307.945" x2="459.196" y2="35.6172" gradientUnits="userSpaceOnUse">
<stop stop-color="#FFF1A9"/>
<stop offset="1" stop-color="#A68C00"/>
</linearGradient>
<linearGradient id="paint1_linear_0_5455" x1="641.682" y1="626.471" x2="340.591" y2="321.751" gradientUnits="userSpaceOnUse">
<stop stop-color="#FFF1A9"/>
<stop offset="1" stop-color="#A68C00"/>
</linearGradient>
<linearGradient id="paint2_linear_0_5455" x1="383.995" y1="245.34" x2="247.65" y2="117.917" gradientUnits="userSpaceOnUse">
<stop stop-color="#FFF1A9"/>
<stop offset="1" stop-color="#A68C00"/>
</linearGradient>
<linearGradient id="paint3_linear_0_5455" x1="345.889" y1="247.204" x2="222.696" y2="142.115" gradientUnits="userSpaceOnUse">
<stop stop-color="#FFF1A9"/>
<stop offset="1" stop-color="#A68C00"/>
</linearGradient>
<linearGradient id="paint4_linear_0_5455" x1="335.967" y1="253.405" x2="214.473" y2="121.819" gradientUnits="userSpaceOnUse">
<stop stop-color="#FFF1A9"/>
<stop offset="1" stop-color="#A68C00"/>
</linearGradient>
<linearGradient id="paint5_linear_0_5455" x1="322.867" y1="270.973" x2="209.562" y2="102.274" gradientUnits="userSpaceOnUse">
<stop stop-color="#FFF1A9"/>
<stop offset="1" stop-color="#A68C00"/>
</linearGradient>
<linearGradient id="paint6_linear_0_5455" x1="303.227" y1="273.183" x2="226.886" y2="127.812" gradientUnits="userSpaceOnUse">
<stop stop-color="#FFF1A9"/>
<stop offset="1" stop-color="#A68C00"/>
</linearGradient>
<linearGradient id="paint7_linear_0_5455" x1="297.079" y1="273.323" x2="237.792" y2="142.187" gradientUnits="userSpaceOnUse">
<stop stop-color="#FFF1A9"/>
<stop offset="1" stop-color="#A68C00"/>
</linearGradient>
<linearGradient id="paint8_linear_0_5455" x1="293.264" y1="330.023" x2="201.928" y2="145.955" gradientUnits="userSpaceOnUse">
<stop stop-color="#FFF1A9"/>
<stop offset="1" stop-color="#A68C00"/>
</linearGradient>
<linearGradient id="paint9_linear_0_5455" x1="288.251" y1="469.038" x2="181.107" y2="276.907" gradientUnits="userSpaceOnUse">
<stop stop-color="#FFF1A9"/>
<stop offset="1" stop-color="#A68C00"/>
</linearGradient>
<linearGradient id="paint10_linear_0_5455" x1="455.853" y1="615.342" x2="328.045" y2="316.98" gradientUnits="userSpaceOnUse">
<stop stop-color="#FFF1A9"/>
<stop offset="1" stop-color="#A68C00"/>
</linearGradient>
<linearGradient id="paint11_linear_0_5455" x1="441.683" y1="382.593" x2="387.987" y2="264.726" gradientUnits="userSpaceOnUse">
<stop stop-color="#FFF1A9"/>
<stop offset="1" stop-color="#A68C00"/>
</linearGradient>
<linearGradient id="paint12_linear_0_5455" x1="441.683" y1="382.593" x2="387.987" y2="264.726" gradientUnits="userSpaceOnUse">
<stop stop-color="#FFF1A9"/>
<stop offset="1" stop-color="#A68C00"/>
</linearGradient>
<linearGradient id="paint13_linear_0_5455" x1="397.197" y1="292.109" x2="381.757" y2="267.585" gradientUnits="userSpaceOnUse">
<stop stop-color="#FFF1A9"/>
<stop offset="1" stop-color="#A68C00"/>
</linearGradient>
</defs>
</svg>
