<svg  viewBox="0 0 20 20" fill="none" xmlns="http://www.w3.org/2000/svg">
<path d="M16.3032 0.895752H2.70501C1.16973 0.895752 0 2.06265 0 3.5942V17.1593C0 18.6909 1.16973 19.8578 2.70501 19.8578H16.3032C17.8385 19.8578 19.0082 18.6909 19.0082 17.1593V3.5942C19.0082 2.06265 17.8385 0.895752 16.3032 0.895752ZM9.5041 16.0654C12.6478 16.0654 15.2066 13.5857 15.2066 10.5956C15.2066 10.085 15.1334 9.5016 14.9872 9.06401H16.5956V16.7947C16.5956 17.1593 16.3032 17.524 15.8645 17.524H3.14367C2.77812 17.524 2.41258 17.2323 2.41258 16.7947V8.99108H4.09408C3.94786 9.5016 3.87475 10.0121 3.87475 10.5226C3.80164 13.5857 6.36044 16.0654 9.5041 16.0654ZM9.5041 13.8775C7.45706 13.8775 5.84868 12.273 5.84868 10.3038C5.84868 8.33471 7.45706 6.73022 9.5041 6.73022C11.5511 6.73022 13.1595 8.33471 13.1595 10.3038C13.1595 12.3459 11.5511 13.8775 9.5041 13.8775ZM16.5225 6.07384C16.5225 6.51143 16.157 6.87609 15.7183 6.87609H13.6713C13.2326 6.87609 12.8671 6.51143 12.8671 6.07384V4.10471C12.8671 3.66713 13.2326 3.30247 13.6713 3.30247H15.7183C16.157 3.30247 16.5225 3.66713 16.5225 4.10471V6.07384Z" fill="currentColor"/>
</svg>
