<svg viewBox="0 0 45 49" fill="none" xmlns="http://www.w3.org/2000/svg">
<path fill-rule="evenodd" clip-rule="evenodd" d="M42.1013 22L22.48 2.79774L2.85879 22L22.48 41.2023L42.1013 22ZM23.9094 1.39887L22.48 0L21.0506 1.39887L1.42939 20.6011L0 22L1.42939 23.3989L21.0506 42.6011L22.48 44L23.9094 42.6011L43.5307 23.3989L44.9601 22L43.5307 20.6011L23.9094 1.39887ZM42.1013 26.6667L22.48 7.46449L2.85879 26.6667L22.48 45.869L42.1013 26.6667ZM23.9094 6.06562L22.48 4.66675L21.0506 6.06562L1.42939 25.2679L0 26.6667L1.42939 28.0656L21.0506 47.2679L22.48 48.6667L23.9094 47.2679L43.5307 28.0656L44.9601 26.6667L43.5307 25.2679L23.9094 6.06562ZM22.5567 16.9441L16.2875 23.0794L17.6723 24.4347L22.5567 19.6545L27.4412 24.4347L28.826 23.0794L22.5567 16.9441ZM22.5567 22.3906L16.2875 28.526L17.6723 29.8812L22.5567 25.1011L27.4412 29.8812L28.826 28.526L22.5567 22.3906Z" fill="white"/>
</svg>
