<svg viewBox="0 0 460 391" fill="none" xmlns="http://www.w3.org/2000/svg">
<mask id="mask0_182_12831" style="mask-type:alpha" maskUnits="userSpaceOnUse" x="0" y="0" width="460" height="391">
<path d="M211.5 98L171.5 58H170L108 120L161 173V258.5L75.5 173H0L217.5 390.5V152L187.5 122L211.5 98Z" fill="url(#paint0_radial_182_12831)"/>
<path d="M287 58L247 98H248L272 122L242 152V390.5L459.5 173H381.5L296 258.5V173L349 120L287 58Z" fill="url(#paint1_radial_182_12831)"/>
<path d="M270 40L230 0L190 40L230 80L270 40Z" fill="url(#paint2_linear_182_12831)"/>
</mask>
<g mask="url(#mask0_182_12831)">
<rect y="-43" width="464" height="469" fill="url(#paint3_linear_182_12831)"/>
</g>
<defs>
<radialGradient id="paint0_radial_182_12831" cx="0" cy="0" r="1" gradientUnits="userSpaceOnUse" gradientTransform="translate(230 85.5) rotate(90) scale(350 483.684)">
<stop stop-color="#F23F85"/>
<stop offset="1" stop-color="#2B0404"/>
</radialGradient>
<radialGradient id="paint1_radial_182_12831" cx="0" cy="0" r="1" gradientUnits="userSpaceOnUse" gradientTransform="translate(230 85.5) rotate(90) scale(350 483.684)">
<stop stop-color="#F23F85"/>
<stop offset="1" stop-color="#2B0404"/>
</radialGradient>
<linearGradient id="paint2_linear_182_12831" x1="230" y1="0" x2="230" y2="80" gradientUnits="userSpaceOnUse">
<stop stop-color="#6FECEC"/>
<stop offset="1" stop-color="#005961"/>
</linearGradient>
<linearGradient id="paint3_linear_182_12831" x1="232" y1="4" x2="232" y2="393.5" gradientUnits="userSpaceOnUse">
<stop stop-color="white"/>
<stop offset="1" stop-color="#B1B1B1"/>
</linearGradient>
</defs>
</svg>
