<svg viewBox="0 0 18 18" fill="none" xmlns="http://www.w3.org/2000/svg">
<path d="M17.5848 15.5272C17.5794 15.5217 17.574 15.5162 17.5685 15.5109L16.8756 14.8337L15.6117 13.5619L14.6746 12.6248L15.5054 11.794C15.658 11.6404 15.658 11.3924 15.5054 11.2388L14.6076 10.3411C14.4541 10.1884 14.206 10.1884 14.0525 10.3411L13.7296 10.664L12.4027 9.17957L17.663 4.47046C17.7416 4.39973 17.7884 4.30041 17.793 4.19484L17.982 0.418889C17.988 0.307461 17.9465 0.198691 17.8678 0.119648C17.7887 0.0409001 17.68 -0.000590121 17.5685 0.00546361L13.7926 0.190521C13.687 0.195098 13.5877 0.241903 13.517 0.320454L9.0008 5.38393L4.47674 0.332217C4.40602 0.253666 4.3067 0.206861 4.20112 0.202284L0.425173 0.0172265C0.313745 0.0111728 0.204974 0.052663 0.125931 0.131411C0.0471837 0.210454 0.00569349 0.319224 0.0117472 0.430652L0.200742 4.2066C0.205319 4.31217 0.252125 4.41149 0.330675 4.48222L5.5989 9.20708L4.27593 10.6679L3.95307 10.345C3.79951 10.1923 3.55146 10.1923 3.3979 10.345L2.50017 11.2427C2.3475 11.3963 2.3475 11.6443 2.50017 11.7979L3.33096 12.6287L2.38993 13.5618L0.421235 15.5305C-0.141958 16.0959 -0.140187 17.0109 0.425222 17.5741C0.69508 17.8428 1.06013 17.9942 1.44102 17.9953C1.82353 17.9966 2.1907 17.8449 2.4608 17.574L5.35084 14.684L6.18163 15.5148C6.33519 15.6674 6.58324 15.6674 6.7368 15.5148L7.63452 14.617C7.7872 14.4635 7.7872 14.2154 7.63452 14.0619L7.32741 13.7193L9.0008 12.2271L10.6742 13.7193L10.3513 14.0422C10.1986 14.1957 10.1986 14.4438 10.3513 14.5974L11.249 15.4951C11.4026 15.6478 11.6507 15.6478 11.8042 15.4951L12.635 14.6643L13.5721 15.6014L14.8399 16.8692L15.525 17.5543C16.0848 18.1231 16.9997 18.1304 17.5685 17.5706C18.1374 17.0109 18.1446 16.0959 17.5848 15.5272ZM13.1626 11.223L12.4696 11.916L10.9892 10.4355L11.8042 9.70713L13.1626 11.223ZM0.95672 3.99005L0.799224 0.812578L3.97669 0.970074L8.44956 5.97055L7.53609 6.99033L5.88239 5.33663C5.71721 5.19518 5.46867 5.21443 5.32722 5.3796C5.20097 5.527 5.20097 5.7444 5.32722 5.8918L7.0321 7.58094L6.12651 8.60072L0.95672 3.99005ZM1.89775 16.9834C1.77481 17.1071 1.60757 17.1766 1.43314 17.1763C1.071 17.1495 0.799175 16.8341 0.826097 16.4719C0.836826 16.3271 0.895247 16.1899 0.992156 16.0818L1.38589 15.688L2.30724 16.5975L1.89775 16.9834ZM2.85848 16.0227L1.95288 15.1132L2.66554 14.4005L3.59477 15.3297L2.85848 16.0227ZM4.13025 14.7509L3.20103 13.8217L3.8822 13.1838L4.81142 14.1131L4.13025 14.7509ZM6.45331 14.6446L5.62646 13.8178L4.14206 12.3334L3.33096 11.5183L3.66958 11.1797L6.81949 14.3296L6.45331 14.6446ZM6.74861 13.1445L6.05563 12.4515L12.6311 5.87605C12.7962 5.7346 12.8155 5.48606 12.674 5.32088C12.5326 5.15571 12.284 5.13647 12.1189 5.27792C12.1035 5.29111 12.0891 5.30548 12.0759 5.32088L5.50046 11.8963L4.80748 11.2033L6.42181 9.40001L14.0052 0.974011L17.1827 0.816516L17.0252 3.99398L11.5837 8.85665L6.74861 13.1445ZM9.56778 11.6758L10.4143 10.9632L11.9223 12.4712L11.2294 13.1642L9.56778 11.6758ZM12.3239 13.8138L11.5247 14.6643L11.186 14.3257L14.336 11.1758L14.6746 11.5144L13.8438 12.3452L12.3239 13.8138ZM13.1587 14.0934L14.1194 13.1838L14.7769 13.8414L13.8477 14.7706L13.1587 14.0934ZM15.088 16.0227L14.3753 15.31L15.3046 14.3808L16.0172 15.0935L15.088 16.0227ZM17.0094 17.0031L16.9779 16.9834C16.7178 17.2314 16.3088 17.2314 16.0487 16.9834L15.655 16.5897L16.6039 15.688L16.9976 16.0818C17.2521 16.3343 17.2573 16.7441 17.0094 17.0031Z" fill="currentColor"/>
</svg>
