<svg viewBox="0 0 20 20" fill="none" xmlns="http://www.w3.org/2000/svg">
<path d="M0.33331 10.0355L4.70339 11.899L6.40696 18.1671C6.48103 18.5906 6.92545 18.6753 7.22172 18.4212L9.66599 16.1342C9.88819 15.8801 10.2585 15.8801 10.5548 16.1342L14.9249 19.7765C15.2212 20.0306 15.6656 19.8612 15.7396 19.4377L18.9987 1.64972C19.0727 1.2262 18.7024 0.802677 18.332 0.972086L0.33331 8.93431C-0.111103 9.10372 -0.111103 9.86605 0.33331 10.0355ZM6.18476 10.9672L14.7767 4.95319C14.9249 4.86849 15.073 5.12261 14.9249 5.20731L7.88834 12.746C7.66613 13.0001 7.44392 13.3389 7.44392 13.7625L7.22172 15.7954C7.22172 16.0495 6.85138 16.1342 6.77731 15.7954L5.88847 12.0684C5.66626 11.6448 5.81442 11.1366 6.18476 10.9672Z" fill="currentColor"/>
</svg>
