<svg  viewBox="0 0 18 14" fill="none" xmlns="http://www.w3.org/2000/svg">
<path d="M17.5075 1.70169C16.8823 1.97038 16.1677 2.14951 15.4531 2.23908C16.1677 1.79126 16.793 1.07476 17.0609 0.268692C16.3463 0.716507 15.6317 0.985197 14.7385 1.16432C14.1132 0.447818 13.1307 0 12.1481 0C10.183 0 8.57512 1.61214 8.57512 3.58252C8.57512 3.85121 8.57513 4.1199 8.66445 4.38859C5.71675 4.20946 3.03702 2.77645 1.25053 0.626939C0.982562 1.16432 0.803913 1.79126 0.803913 2.4182C0.803913 3.67208 1.42919 4.74684 2.41175 5.37378C1.78648 5.37378 1.25053 5.19466 0.803913 4.92597C0.803913 6.62767 2.05445 8.15023 3.66229 8.41892C3.39431 8.50849 3.03703 8.50849 2.67973 8.50849C2.41176 8.50849 2.2331 8.50849 1.96513 8.41892C2.41175 9.85193 3.75162 10.9267 5.35946 10.9267C4.10892 11.9119 2.5904 12.4493 0.893243 12.4493C0.62527 12.4493 0.357297 12.4493 0 12.3597C1.60784 13.3449 3.48364 13.9718 5.5381 13.9718C12.1481 13.9718 15.7211 8.50849 15.7211 3.76165V3.31383C16.4357 3.04514 17.0609 2.4182 17.5075 1.70169Z" fill="currentColor"/>
</svg>
